SplineFontDB: 3.0
FontName: NadiaSerifCut_BK
FullName: Nadia Serif Cut BK
FamilyName: Nadia Serif Cut BK
Weight: Cut
Copyright: (c) 1999 nadia knechtle. OSP modified - December 2012
Version: Macromedia Fontographer 4.1.3 09.07.2002
ItalicAngle: 0
UnderlinePosition: -123
UnderlineWidth: 20
Ascent: 800
Descent: 200
sfntRevision: 0x00010000
LayerCount: 2
Layer: 0 1 "Back"  1
Layer: 1 1 "Fore"  0
XUID: [1021 619 1067718245 2553678]
FSType: 1
OS2Version: 0
OS2_WeightWidthSlopeOnly: 0
OS2_UseTypoMetrics: 1
CreationTime: 1026230984
ModificationTime: 1358526198
PfmFamily: 81
TTFWeight: 400
TTFWidth: 5
LineGap: 0
VLineGap: 0
Panose: 0 0 4 0 0 0 0 0 0 0
OS2TypoAscent: 879
OS2TypoAOffset: 0
OS2TypoDescent: -243
OS2TypoDOffset: 0
OS2TypoLinegap: 0
OS2WinAscent: 879
OS2WinAOffset: 0
OS2WinDescent: 243
OS2WinDOffset: 0
HheadAscent: 879
HheadAOffset: 0
HheadDescent: -243
HheadDOffset: 0
OS2SubXSize: 700
OS2SubYSize: 650
OS2SubXOff: 0
OS2SubYOff: 143
OS2SupXSize: 700
OS2SupYSize: 650
OS2SupXOff: 0
OS2SupYOff: 453
OS2StrikeYSize: 50
OS2StrikeYPos: 259
OS2Vendor: 'DaMa'
OS2UnicodeRanges: 00000000.00000000.00000000.00000000
Lookup: 258 0 0 "'kern' Horizontal Kerning in Latin lookup 0"  {"'kern' Horizontal Kerning in Latin lookup 0 subtable"  } ['kern' ('DFLT' <'dflt' > 'latn' <'dflt' > ) ]
MarkAttachClasses: 1
DEI: 91125
TtTable: prep
NPUSHB
 21
 13
 13
 12
 12
 11
 11
 10
 10
 9
 9
 8
 8
 3
 3
 2
 2
 1
 1
 0
 0
 1
SCANTYPE
PUSHW_1
 511
SCANCTRL
RCVT
ROUND[Grey]
WCVTP
RCVT
ROUND[Grey]
WCVTP
RCVT
ROUND[Grey]
WCVTP
RCVT
ROUND[Grey]
WCVTP
RCVT
ROUND[Grey]
WCVTP
RCVT
ROUND[Grey]
WCVTP
RCVT
ROUND[Grey]
WCVTP
RCVT
ROUND[Grey]
WCVTP
RCVT
ROUND[Grey]
WCVTP
RCVT
ROUND[Grey]
WCVTP
PUSHB_4
 5
 4
 70
 0
CALL
PUSHB_4
 7
 6
 70
 0
CALL
PUSHB_2
 4
 4
RCVT
ROUND[Grey]
WCVTP
PUSHB_2
 6
 6
RCVT
ROUND[Grey]
WCVTP
EndTTInstrs
TtTable: fpgm
NPUSHB
 1
 0
FDEF
SROUND
RCVT
DUP
PUSHB_1
 3
CINDEX
RCVT
SWAP
SUB
ROUND[Grey]
RTG
SWAP
ROUND[Grey]
ADD
WCVTP
ENDF
EndTTInstrs
ShortTable: cvt  301
  -238
  -7
  517

StartChar: .notdef
Encoding: 65536 -1 0
Width: 500
Flags: W
LayerCount: 2
Fore
SplineSet
63 0 m 1,0,-1
 63 760 l 1,1,-1
 438 760 l 1,2,-1
 438 0 l 1,3,-1
 63 0 l 1,0,-1
125 63 m 1,4,-1
 375 63 l 1,5,-1
 375 698 l 1,6,-1
 125 698 l 1,7,-1
 125 63 l 1,4,-1
EndSplineSet
Validated: 1
EndChar

StartChar: exclam
Encoding: 33 33 4
Width: 215
Flags: W
LayerCount: 2
Fore
SplineSet
173 721 m 2,0,-1
 158 268 l 1,1,2
 142 240 142 240 129 240 c 0,3,4
 105 240 105 240 100 269 c 1,5,-1
 85 721 l 2,6,7
 85 734 85 734 99 734 c 2,8,-1
 158 734 l 2,9,10
 173 734 173 734 173 721 c 2,0,-1
189 56 m 256,11,12
 189 31 189 31 171.5 13.5 c 128,-1,13
 154 -4 154 -4 129 -4 c 256,14,15
 104 -4 104 -4 86.5 13.5 c 128,-1,16
 69 31 69 31 69 56 c 256,17,18
 69 81 69 81 86.5 98.5 c 128,-1,19
 104 116 104 116 129 116 c 256,20,21
 154 116 154 116 171.5 98.5 c 128,-1,22
 189 81 189 81 189 56 c 256,11,12
EndSplineSet
Validated: 1
EndChar

StartChar: percent
Encoding: 37 37 5
Width: 786
Flags: W
LayerCount: 2
Fore
SplineSet
317 576 m 0,0,1
 317 493 317 493 278 451 c 0,2,3
 245 416 245 416 192 416 c 256,4,5
 139 416 139 416 105 451 c 0,6,7
 65 493 65 493 65 576 c 0,8,9
 65 655 65 655 109 698 c 0,10,11
 145 733 145 733 192 733 c 0,12,13
 238 733 238 733 273 698 c 0,14,15
 317 655 317 655 317 576 c 0,0,1
531 717 m 1,16,17
 592 694 l 1,18,-1
 262 10 l 1,19,20
 201 33 l 1,21,-1
 531 717 l 1,22,-1
 531 717 l 1,16,17
721 149 m 0,23,24
 721 66 721 66 681 25 c 1,25,26
 648 -11 648 -11 595 -11 c 256,27,28
 542 -11 542 -11 508 25 c 0,29,30
 468 66 468 66 468 149 c 0,31,32
 468 229 468 229 513 272 c 0,33,34
 548 306 548 306 595 306 c 256,35,36
 642 306 642 306 677 272 c 0,37,38
 721 229 721 229 721 149 c 0,23,24
256 575 m 0,39,40
 256 627 256 627 232 654 c 0,41,42
 214 674 214 674 191 674 c 0,43,44
 166 674 166 674 149 654 c 1,45,46
 125 628 125 628 125 575 c 0,47,48
 125 474 125 474 190 474 c 0,49,50
 256 474 256 474 256 575 c 0,39,40
660 149 m 0,51,52
 660 200 660 200 636 227 c 0,53,54
 617 248 617 248 595 248 c 0,55,56
 570 248 570 248 552 228 c 0,57,58
 529 202 529 202 529 148 c 0,59,60
 529 48 529 48 594 48 c 0,61,62
 660 48 660 48 660 149 c 0,51,52
EndSplineSet
Validated: 5
EndChar

StartChar: ampersand
Encoding: 38 38 6
Width: 582
Flags: W
LayerCount: 2
Fore
SplineSet
529 -5 m 1,0,-1
 466 69 l 1,1,2
 369 -11 369 -11 266 -11 c 0,3,4
 175 -11 175 -11 115 37 c 0,5,6
 50 89 50 89 50 178 c 0,7,8
 50 259 50 259 112 324 c 0,9,10
 134 348 134 348 197 391 c 1,11,-1
 197 391 l 1,12,13
 134 467 134 467 131 471 c 0,14,15
 98 520 98 520 98 569 c 0,16,17
 98 655 98 655 159 700 c 0,18,19
 209 738 209 738 284 738 c 0,20,21
 342 738 342 738 389 697 c 1,22,23
 443 652 443 652 443 583 c 0,24,25
 443 509 443 509 383 445 c 0,26,27
 356 415 356 415 295 374 c 1,28,-1
 468 167 l 1,29,30
 516 241 516 241 516 300 c 1,31,-1
 516 300 l 1,32,-1
 581 309 l 1,33,34
 581 213 581 213 512 118 c 1,35,-1
 578 36 l 1,36,37
 529 -5 l 1,0,-1
380 582 m 0,38,39
 380 628 380 628 345 657 c 0,40,41
 315 682 315 682 274 682 c 256,42,43
 233 682 233 682 201 656 c 0,44,45
 164 627 164 627 164 582 c 0,46,47
 164 538 164 538 204 481 c 0,48,49
 211 472 211 472 254 422 c 1,50,51
 319 468 319 468 329 478 c 0,52,53
 380 527 380 527 380 582 c 0,38,39
425 116 m 1,54,-1
 235 346 l 1,55,56
 214 331 214 331 194 317 c 1,57,58
 161 291 161 291 142 264 c 0,59,60
 117 227 117 227 117 185 c 0,61,62
 117 125 117 125 162.5 88 c 128,-1,63
 208 51 208 51 276 51 c 0,64,65
 349 51 349 51 425 116 c 1,54,-1
EndSplineSet
Validated: 5
EndChar

StartChar: parenleft
Encoding: 40 40 7
Width: 313
Flags: W
LayerCount: 2
UndoRedoHistory
Layer: 1
Undoes
EndUndoes
Redoes
EndRedoes
EndUndoRedoHistory
Fore
SplineSet
281.583007812 762.4140625 m 5,0,1
 278.583007812 757.4140625 278.583007812 757.4140625 269.583007812 747.4140625 c 4,2,3
 207.583007812 671.4140625 207.583007812 671.4140625 181.583007812 617.4140625 c 4,4,5
 122.583007812 497.4140625 122.583007812 497.4140625 122.583007812 339.4140625 c 4,6,7
 122.583007812 227.4140625 122.583007812 227.4140625 166.583007812 104.9140625 c 132,-1,8
 210.583007812 -17.5859375 210.583007812 -17.5859375 274.583007812 -82.5859375 c 5,9,10
 223.583007812 -109.5859375 l 5,11,12
 168.583007812 -61.5859375 168.583007812 -61.5859375 119.583007812 41.4140625 c 4,13,14
 50.5830078125 183.4140625 50.5830078125 183.4140625 50.5830078125 340.4140625 c 260,15,16
 50.5830078125 497.4140625 50.5830078125 497.4140625 121.583007812 641.4140625 c 4,17,18
 173.583007812 745.4140625 173.583007812 745.4140625 228.583007812 792.4140625 c 5,19,-1
 281.583007812 762.4140625 l 5,0,1
EndSplineSet
EndChar

StartChar: parenright
Encoding: 41 41 8
Width: 311
Flags: W
LayerCount: 2
UndoRedoHistory
Layer: 1
Undoes
EndUndoes
Redoes
EndRedoes
EndUndoRedoHistory
Fore
SplineSet
261 338 m 260,0,1
 261 181 261 181 192 39 c 4,2,3
 143 -64 143 -64 88 -112 c 5,4,5
 37 -85 l 5,6,7
 105 -16 105 -16 148 112 c 4,8,9
 189 231 189 231 189 337 c 4,10,11
 189 460 189 460 153 561 c 4,12,13
 127 633 127 633 81 695 c 5,14,15
 56 727 56 727 30 760 c 5,16,-1
 82 790 l 5,17,18
 138 743 138 743 190 639 c 4,19,20
 261 495 261 495 261 338 c 260,0,1
EndSplineSet
EndChar

StartChar: asterisk
Encoding: 42 42 9
Width: 500
Flags: W
LayerCount: 2
Fore
SplineSet
413 550 m 0,0,1
 413 545 413 545 402 541 c 2,2,-1
 289 509 l 1,3,-1
 362 416 l 1,4,5
 367 406 367 406 367 407 c 1,6,7
 367 403 367 403 359 397 c 2,8,-1
 334 377 l 2,9,10
 329 373 329 373 324 373 c 0,11,12
 320 373 320 373 315 381 c 2,13,-1
 250 481 l 1,14,-1
 185 384 l 2,15,16
 180 376 180 376 176 376 c 0,17,18
 171 376 171 376 166 380 c 2,19,-1
 142 398 l 2,20,21
 134 404 134 404 134 408 c 1,22,23
 134 407 134 407 139 417 c 1,24,-1
 211 509 l 1,25,-1
 99 539 l 1,26,27
 88 543 88 543 88 548 c 0,28,29
 88 550 88 550 91 559 c 2,30,-1
 99 587 l 2,31,32
 102 598 102 598 108 598 c 0,33,34
 109 598 109 598 117 595 c 2,35,-1
 226 554 l 1,36,-1
 222 655 l 2,37,38
 221 680 221 680 221 674 c 1,39,40
 221 685 221 685 231 685 c 2,41,-1
 269 685 l 2,42,43
 279 685 279 685 279 674 c 1,44,45
 279 680 279 680 278 655 c 2,46,-1
 274 554 l 1,47,-1
 382 594 l 2,48,49
 390 597 390 597 391 597 c 0,50,51
 396 597 396 597 400 586 c 2,52,-1
 410 561 l 2,53,54
 412 557 412 557 413 550 c 0,0,1
EndSplineSet
Validated: 5
EndChar

StartChar: plus
Encoding: 43 43 10
Width: 369
Flags: W
LayerCount: 2
Fore
SplineSet
345 310 m 1,0,1
 373 306 373 306 373 282 c 0,2,3
 373 257 373 257 345 254 c 1,4,-1
 237 254 l 1,5,-1
 237 148 l 1,6,7
 239 137 239 137 230 128 c 128,-1,8
 221 119 221 119 210 119 c 256,9,10
 199 119 199 119 190 127 c 128,-1,11
 181 135 181 135 181 146 c 2,12,-1
 181 254 l 1,13,-1
 74 254 l 2,14,15
 64 254 64 254 55 262.5 c 128,-1,16
 46 271 46 271 46 282 c 0,17,18
 46 306 46 306 74 310 c 1,19,-1
 181 310 l 1,20,-1
 181 419 l 2,21,22
 181 446 181 446 209 446 c 256,23,24
 237 446 237 446 238 419 c 1,25,-1
 238 310 l 1,26,-1
 345 310 l 1,27,-1
 345 310 l 1,0,1
EndSplineSet
Validated: 5
EndChar

StartChar: comma
Encoding: 44 44 11
Width: 215
Flags: W
LayerCount: 2
Fore
SplineSet
197 45 m 0,0,1
 194 -43 194 -43 117 -89 c 1,2,3
 95 -100 95 -100 88 -97 c 0,4,5
 79 -93 79 -93 91 -83 c 0,6,7
 141 -43 141 -43 145 -4 c 1,8,9
 141 -6 141 -6 123 -7 c 1,10,11
 99 -4 99 -4 86 14 c 128,-1,12
 73 32 73 32 75 57 c 0,13,14
 78 82 78 82 97.5 97.5 c 128,-1,15
 117 113 117 113 141 111 c 0,16,17
 165 108 165 108 181.5 88.5 c 128,-1,18
 198 69 198 69 197 45 c 0,0,1
EndSplineSet
Validated: 33
EndChar

StartChar: hyphen
Encoding: 45 45 12
AltUni2: 002010.ffffffff.0
Width: 399
Flags: W
LayerCount: 2
Fore
SplineSet
331 310 m 1,0,1
 359 306 359 306 359 282 c 0,2,3
 359 259 359 259 331 254 c 1,4,-1
 68 254 l 1,5,6
 40 259 40 259 40 282 c 0,7,8
 40 306 40 306 68 310 c 1,9,-1
 331 310 l 1,10,-1
 331 310 l 1,0,1
EndSplineSet
Validated: 5
EndChar

StartChar: period
Encoding: 46 46 13
Width: 215
Flags: W
LayerCount: 2
Fore
SplineSet
195 56 m 256,0,1
 195 31 195 31 177.5 13.5 c 128,-1,2
 160 -4 160 -4 135 -4 c 256,3,4
 110 -4 110 -4 92.5 13.5 c 128,-1,5
 75 31 75 31 75 56 c 256,6,7
 75 81 75 81 92.5 98.5 c 128,-1,8
 110 116 110 116 135 116 c 256,9,10
 160 116 160 116 177.5 98.5 c 128,-1,11
 195 81 195 81 195 56 c 256,0,1
EndSplineSet
Validated: 1
EndChar

StartChar: slash
Encoding: 47 47 14
Width: 456
Flags: W
LayerCount: 2
Fore
SplineSet
391 822 m 1,0,1
 401 839 401 839 417 839 c 0,2,3
 422 839 422 839 427 837 c 0,4,5
 449 829 449 829 443 801 c 1,6,-1
 71 -123 l 1,7,8
 60 -141 60 -141 44 -141 c 0,9,10
 39 -141 39 -141 34 -139 c 0,11,12
 12 -130 12 -130 19 -102 c 1,13,-1
 391 822 l 1,14,-1
 391 822 l 1,0,1
EndSplineSet
Validated: 37
EndChar

StartChar: zero
Encoding: 48 48 15
Width: 500
Flags: W
LayerCount: 2
Fore
SplineSet
473 365 m 0,0,1
 473 -14 473 -14 250 -14 c 0,2,3
 128 -14 128 -14 75 89 c 1,4,5
 27 180 27 180 27 365 c 0,6,7
 27 748 27 748 249 748 c 0,8,9
 473 748 473 748 473 365 c 0,0,1
401 370 m 0,10,11
 401 689 401 689 250 689 c 0,12,13
 98 689 98 689 98 370 c 0,14,15
 98 44 98 44 248 44 c 0,16,17
 401 44 401 44 401 370 c 0,10,11
EndSplineSet
Validated: 1
EndChar

StartChar: one
Encoding: 49 49 16
Width: 404
Flags: W
LayerCount: 2
Fore
SplineSet
248 740 m 1,0,-1
 248 50 l 1,1,-1
 337 50 l 1,2,3
 337 0 l 1,4,-1
 89 0 l 1,5,6
 89 50 l 1,7,-1
 184 50 l 1,8,-1
 184 641 l 1,9,-1
 83 586 l 1,10,11
 84 648 l 1,12,-1
 248 740 l 1,0,-1
EndSplineSet
Validated: 1
EndChar

StartChar: two
Encoding: 50 50 17
Width: 500
Flags: W
LayerCount: 2
Fore
SplineSet
253 743 m 0,0,1
 305 743 305 743 350 717 c 0,2,3
 433 671 433 671 433 558 c 0,4,5
 433 467.666666667 433 467.666666667 313 303 c 2,6,-1
 133 56 l 1,7,-1
 421 56 l 1,8,9
 421 0 l 1,10,-1
 64 0 l 5,11,12
 62 62 l 2,13,-1
 261 338 l 2,14,15
 312.612588171 409.583288117 312.612588171 409.583288117 335 451 c 0,16,17
 368 511 368 511 368 557 c 0,18,19
 368 617 368 617 337 651.5 c 128,-1,20
 306 686 306 686 251 686 c 0,21,22
 158 686 158 686 131 600 c 1,23,24
 76 604 l 1,25,26
 76 660 76 660 128 701.5 c 128,-1,27
 180 743 180 743 253 743 c 0,0,1
EndSplineSet
Validated: 1
EndChar

StartChar: three
Encoding: 51 51 18
Width: 500
Flags: W
LayerCount: 2
Fore
SplineSet
258 744 m 0,0,1
 312 743 312 743 357 712 c 0,2,3
 430 661 430 661 430 548 c 0,4,5
 430 491 430 491 388 448 c 0,6,7
 367 427 367 427 313 394 c 1,8,9
 379 365 379 365 402 345 c 0,10,11
 459 295 459 295 459 202 c 0,12,13
 459 114 459 114 390 50 c 0,14,15
 326 -10 326 -10 246 -10 c 0,16,17
 99 -10 99 -10 41 61 c 1,18,19
 79 107 l 1,20,21
 114 75 114 75 151.5 63 c 128,-1,22
 189 51 189 51 248 51 c 0,23,24
 299 51 299 51 343.5 95.5 c 128,-1,25
 388 140 388 140 388 201 c 0,26,27
 388 295 388 295 312 332 c 0,28,29
 270 353 270 353 215 353 c 2,30,-1
 170 353 l 1,31,32
 170 422 l 1,33,-1
 215 422 l 2,34,35
 267 422 267 422 314 460.5 c 128,-1,36
 361 499 361 499 361 552 c 0,37,38
 361 613 361 613 326 652 c 0,39,40
 296 685 296 685 258 686 c 1,41,42
 207 686 207 686 175 671 c 0,43,44
 160 664 160 664 117 630 c 1,45,46
 78 674 l 1,47,48
 137 746 137 746 258 744 c 0,0,1
EndSplineSet
Validated: 33
EndChar

StartChar: four
Encoding: 52 52 19
Width: 500
Flags: W
LayerCount: 2
Fore
SplineSet
440 205 m 1,0,-1
 363 205 l 1,1,-1
 363 -0 l 1,2,-1
 300 -0 l 1,3,-1
 300 204 l 1,4,-1
 9 204 l 17,5,6
 40 274 l 1,7,-1
 248 721 l 1,8,9
 306 702 l 1,10,-1
 96 258 l 1,11,-1
 300 258 l 1,12,-1
 300 387 l 1,13,-1
 363 388 l 1,14,-1
 363 258 l 1,15,-1
 440 258 l 1,16,-1
 440 205 l 1,0,-1
EndSplineSet
Validated: 1
EndChar

StartChar: five
Encoding: 53 53 20
Width: 500
Flags: W
LayerCount: 2
Fore
SplineSet
87 733 m 2,0,-1
 400 733 l 1,1,2
 400 675 l 1,3,-1
 154 675 l 1,4,-1
 154 438 l 1,5,6
 188 443 188 443 220 443 c 0,7,8
 339 443 339 443 402 378 c 0,9,10
 459 319 459 319 459 217 c 0,11,12
 459 124 459 124 394 58 c 0,13,14
 326 -10 326 -10 226 -10 c 0,15,16
 99 -10 99 -10 41 61 c 1,17,18
 78 107 l 1,19,-1
 79 107 l 1,20,21
 117 73 117 73 142 63 c 0,22,23
 172 51 172 51 228 51 c 0,24,25
 297 51 297 51 343.5 100 c 128,-1,26
 390 149 390 149 390 215 c 0,27,28
 390 380 390 380 213 380 c 0,29,30
 188 380 188 380 159 377 c 1,31,-1
 101 368 l 21,32,33
 86 383 l 9,34,35
 87.0670641915 732.997054821 87.0670641915 732.997054821 87 733 c 2,0,-1
EndSplineSet
Validated: 33
EndChar

StartChar: six
Encoding: 54 54 21
Width: 500
Flags: W
LayerCount: 2
Fore
SplineSet
311 744 m 0,0,1
 372 744 372 744 405 723 c 1,2,3
 385 668 l 1,4,5
 372 672 372 672 359 677 c 0,6,7
 338 684 338 684 318 684 c 0,8,9
 219 684 219 684 161 564 c 0,10,11
 119 475 119 475 119 397 c 1,12,13
 132 421 132 421 166 442 c 0,14,15
 212 471 212 471 263 471 c 0,16,17
 328 471 328 471 381 423 c 0,18,19
 451 359 451 359 451 237 c 0,20,21
 451 130 451 130 396 60 c 128,-1,22
 341 -10 341 -10 249 -10 c 0,23,24
 155 -10 155 -10 102.5 70 c 128,-1,25
 50 150 50 150 50 284 c 0,26,27
 50 446 50 446 95 566 c 0,28,29
 162 744 162 744 311 744 c 0,0,1
384 236 m 0,30,31
 384 314 384 314 349.5 364 c 128,-1,32
 315 414 315 414 259 414 c 0,33,34
 198 414 198 414 161 359.5 c 128,-1,35
 124 305 124 305 124 229 c 0,36,37
 124 151 124 151 161.5 100 c 128,-1,38
 199 49 199 49 252 49 c 256,39,40
 305 49 305 49 342 94 c 0,41,42
 384 146 384 146 384 236 c 0,30,31
EndSplineSet
Validated: 1
EndChar

StartChar: seven
Encoding: 55 55 22
Width: 473
Flags: W
LayerCount: 2
Fore
SplineSet
434 683 m 9,0,-1
 151.5 0 l 1,1,-1
 80 0 l 1,2,-1
 356 675 l 1,3,-1
 58 675 l 1,4,5
 58 733 l 1,6,-1
 434 733 l 1,7,8
 434 683 l 9,0,-1
EndSplineSet
Validated: 1
EndChar

StartChar: eight
Encoding: 56 56 23
Width: 500
Flags: W
LayerCount: 2
Fore
SplineSet
251 743 m 0,0,1
 308 743 308 743 350 720 c 0,2,3
 431 675 431 675 431 556 c 0,4,5
 431 466 431 466 317 396 c 1,6,7
 460 334 460 334 460 184 c 0,8,9
 460 95 460 95 401 42.5 c 128,-1,10
 342 -10 342 -10 251 -11 c 1,11,12
 157 -11 157 -11 98.5 43 c 128,-1,13
 40 97 40 97 40 189 c 0,14,15
 40 342 40 342 176 397 c 1,16,17
 71 450 71 450 71 556 c 0,18,19
 71 676 71 676 152 721 c 0,20,21
 193 743 193 743 251 743 c 0,0,1
362 560 m 0,22,23
 362 629 362 629 325 662 c 0,24,25
 296 688 296 688 250 688 c 0,26,27
 140 688 140 688 140 560 c 0,28,29
 140 472 140 472 251 424 c 1,30,31
 306 449 306 449 331 475 c 0,32,33
 362 509 362 509 362 560 c 0,22,23
389 183 m 0,34,35
 389 249 389 249 366 289 c 0,36,37
 348 320 348 320 312 341 c 0,38,39
 281 358 281 358 250 375 c 1,40,41
 173 332 173 332 159 319 c 0,42,43
 111 273 111 273 111 188 c 0,44,45
 111 123 111 123 147.5 85 c 128,-1,46
 184 47 184 47 250 47 c 0,47,48
 313 47 313 47 351 84 c 128,-1,49
 389 121 389 121 389 183 c 0,34,35
176 397 m 0,50,-1
EndSplineSet
Validated: 1
EndChar

StartChar: nine
Encoding: 57 57 24
Width: 500
Flags: W
LayerCount: 2
Fore
SplineSet
448 445 m 0,0,1
 448 259 448 259 411 157 c 0,2,3
 349 -10 349 -10 184 -10 c 0,4,5
 123 -10 123 -10 90 11 c 1,6,7
 110 66 l 1,8,9
 123 61 123 61 136 57 c 0,10,11
 157 50 157 50 177 50 c 0,12,13
 296 50 296 50 347 171 c 0,14,15
 377 243 377 243 377 331 c 1,16,17
 363 305 363 305 333 285 c 0,18,19
 289 256 289 256 232 256 c 0,20,21
 177 256 177 256 124 305 c 0,22,23
 52 371 52 371 52 490 c 0,24,25
 52 599 52 599 108.5 671.5 c 128,-1,26
 165 744 165 744 256 744 c 0,27,28
 349 744 349 744 399 660 c 1,29,30
 448 581 448 581 448 445 c 0,0,1
369 500 m 0,31,32
 369 580 369 580 337 632.5 c 128,-1,33
 305 685 305 685 253 685 c 0,34,35
 200 685 200 685 163 637 c 0,36,37
 121 584 121 584 121 494 c 0,38,39
 121 416 121 416 156 364.5 c 128,-1,40
 191 313 191 313 247 313 c 0,41,42
 307 313 307 313 340 370 c 0,43,44
 369 421 369 421 369 500 c 0,31,32
EndSplineSet
Validated: 1
EndChar

StartChar: colon
Encoding: 58 58 25
Width: 215
Flags: W
LayerCount: 2
Fore
SplineSet
195 336 m 256,0,1
 195 311 195 311 177.5 293.5 c 128,-1,2
 160 276 160 276 135 276 c 256,3,4
 110 276 110 276 92.5 293.5 c 128,-1,5
 75 311 75 311 75 336 c 256,6,7
 75 361 75 361 92.5 378.5 c 128,-1,8
 110 396 110 396 135 396 c 256,9,10
 160 396 160 396 177.5 378.5 c 128,-1,11
 195 361 195 361 195 336 c 256,0,1
195 56 m 256,12,13
 195 31 195 31 177.5 13.5 c 128,-1,14
 160 -4 160 -4 135 -4 c 256,15,16
 110 -4 110 -4 92.5 13.5 c 128,-1,17
 75 31 75 31 75 56 c 256,18,19
 75 81 75 81 92.5 98.5 c 128,-1,20
 110 116 110 116 135 116 c 256,21,22
 160 116 160 116 177.5 98.5 c 128,-1,23
 195 81 195 81 195 56 c 256,12,13
EndSplineSet
Validated: 1
EndChar

StartChar: semicolon
Encoding: 59 59 26
Width: 215
Flags: W
LayerCount: 2
Fore
SplineSet
195 329 m 256,0,1
 195 304 195 304 177.5 286.5 c 128,-1,2
 160 269 160 269 135 269 c 256,3,4
 110 269 110 269 92.5 286.5 c 128,-1,5
 75 304 75 304 75 329 c 256,6,7
 75 354 75 354 92.5 371.5 c 128,-1,8
 110 389 110 389 135 389 c 256,9,10
 160 389 160 389 177.5 371.5 c 128,-1,11
 195 354 195 354 195 329 c 256,0,1
197 45 m 0,12,13
 194 -43 194 -43 117 -89 c 1,14,15
 95 -100 95 -100 88 -97 c 0,16,17
 79 -93 79 -93 91 -83 c 0,18,19
 141 -43 141 -43 145 -4 c 1,20,21
 141 -6 141 -6 123 -7 c 1,22,23
 99 -4 99 -4 86 14 c 128,-1,24
 73 32 73 32 75 57 c 0,25,26
 78 82 78 82 97.5 97.5 c 128,-1,27
 117 113 117 113 141 111 c 0,28,29
 165 108 165 108 181.5 88.5 c 128,-1,30
 198 69 198 69 197 45 c 0,12,13
EndSplineSet
Validated: 33
EndChar

StartChar: less
Encoding: 60 60 27
Width: 289
Flags: W
LayerCount: 2
Fore
SplineSet
213 513 m 1,0,1
 213 513 213 513 222 510 c 1,2,-1
 249 495 l 2,3,4
 258 490 258 490 258 485 c 0,5,6
 258 484 258 484 254 476 c 1,7,-1
 103 285 l 1,8,-1
 254 95 l 2,9,10
 259 89 259 89 259 86 c 0,11,12
 259 82 259 82 249 76 c 2,13,-1
 222 61 l 2,14,15
 217 58 217 58 213 58 c 0,16,17
 207 58 207 58 203 65 c 1,18,-1
 35 276 l 2,19,20
 30 281 30 281 30 285 c 0,21,22
 30 290 30 290 35 295 c 2,23,-1
 203 506 l 2,24,25
 209 513 209 513 213 513 c 1,0,1
EndSplineSet
Validated: 1
EndChar

StartChar: equal
Encoding: 61 61 28
Width: 369
Flags: W
LayerCount: 2
Fore
SplineSet
341 351 m 5,0,1
 341 295 l 5,2,-1
 78 295 l 5,3,4
 78 351 l 5,5,-1
 341 351 l 5,6,-1
 341 351 l 5,0,1
341 253 m 5,7,8
 341 197 l 5,9,-1
 78 197 l 5,10,11
 78 253 l 5,12,-1
 341 253 l 5,13,-1
 341 253 l 5,7,8
EndSplineSet
Validated: 5
EndChar

StartChar: greater
Encoding: 62 62 29
Width: 289
Flags: W
LayerCount: 2
Fore
SplineSet
259 285 m 0,0,1
 259 281 259 281 254 276 c 2,2,-1
 86 65 l 1,3,4
 82 58 82 58 76 58 c 0,5,6
 72 58 72 58 67 61 c 2,7,-1
 40 76 l 2,8,9
 30 82 30 82 30 86 c 0,10,11
 30 89 30 89 35 95 c 2,12,-1
 186 285 l 1,13,-1
 35 476 l 1,14,15
 31 484 31 484 31 485 c 0,16,17
 31 490 31 490 40 495 c 2,18,-1
 67 510 l 1,19,20
 76 513 76 513 76 513 c 1,21,22
 80 513 80 513 86 506 c 2,23,-1
 254 295 l 2,24,25
 259 290 259 290 259 285 c 0,0,1
EndSplineSet
Validated: 1
EndChar

StartChar: question
Encoding: 63 63 30
Width: 413
Flags: W
LayerCount: 2
Fore
SplineSet
373 548 m 0,0,1
 373 472 373 472 323 418 c 1,2,3
 281 375 281 375 229 364 c 1,4,-1
 222 257 l 2,5,6
 220 229 220 229 194 229 c 0,7,8
 167 229 167 229 166 258 c 2,9,-1
 160 398 l 1,10,11
 223 398 223 398 267 442.5 c 128,-1,12
 311 487 311 487 311 551 c 0,13,14
 311 613 311 613 271 653 c 0,15,16
 237 687 237 687 201 687 c 0,17,18
 155 688 155 688 126 674 c 0,19,20
 112 667 112 667 74 638 c 0,21,22
 65 630 65 630 61 638 c 1,23,-1
 40 663 l 2,24,25
 33 671 33 671 40 679 c 0,26,27
 97 743 97 743 201 742 c 0,28,29
 252 741 252 741 298 709 c 0,30,31
 373 658 373 658 373 548 c 0,0,1
256 56 m 256,32,33
 256 31 256 31 238.5 13.5 c 128,-1,34
 221 -4 221 -4 196 -4 c 256,35,36
 171 -4 171 -4 153.5 13.5 c 128,-1,37
 136 31 136 31 136 56 c 256,38,39
 136 81 136 81 153.5 98.5 c 128,-1,40
 171 116 171 116 196 116 c 256,41,42
 221 116 221 116 238.5 98.5 c 128,-1,43
 256 81 256 81 256 56 c 256,32,33
EndSplineSet
Validated: 33
EndChar

StartChar: at
Encoding: 64 64 31
Width: 812
Flags: W
LayerCount: 2
Fore
SplineSet
771 226 m 0,0,1
 771 109 771 109 713 46 c 1,2,3
 658 -12 658 -12 565 -12 c 0,4,5
 516 -12 516 -12 490.5 12 c 128,-1,6
 465 36 465 36 465 72 c 0,7,8
 465 79 465 79 466 86 c 1,9,-1
 464 86 l 1,10,11
 449 48 449 48 413 20 c 0,12,13
 373 -12 373 -12 327 -12 c 0,14,15
 233 -12 233 -12 233 111 c 0,16,17
 233 215 233 215 287 281 c 1,18,19
 344 353 344 353 444 353 c 0,20,21
 500 353 500 353 561 340 c 1,22,-1
 528 158 l 2,23,24
 524 134 524 134 524 116 c 0,25,26
 524 49 524 49 579 49 c 0,27,28
 633 49 633 49 669 91 c 0,29,30
 710 139 710 139 710 222 c 0,31,32
 710 326 710 326 639 395 c 0,33,34
 562 470 562 470 434 470 c 0,35,36
 302 470 302 470 206 377 c 0,37,38
 107 281 107 281 107 140 c 0,39,40
 107 9 107 9 185 -69 c 1,41,42
 264 -150 264 -150 402 -150 c 0,43,44
 466 -150 466 -150 540 -128 c 0,45,46
 553 -125 553 -125 553 -134 c 2,47,-1
 553 -174 l 2,48,49
 553 -190 553 -190 540 -192 c 1,50,51
 473 -211 473 -211 392 -211 c 0,52,53
 229 -211 229 -211 134 -115 c 0,54,55
 41 -22 41 -22 41 133 c 0,56,57
 41 304 41 304 159 418 c 0,58,59
 273 528 273 528 438 528 c 0,60,61
 591 528 591 528 685 436 c 1,62,63
 771 350 771 350 771 226 c 0,0,1
485 297 m 1,64,65
 466 303 466 303 429 303 c 0,66,67
 368 303 368 303 328 239 c 0,68,69
 293 184 293 184 293 120 c 0,70,71
 293 46 293 46 343 46 c 0,72,73
 386 46 386 46 421.5 101.5 c 128,-1,74
 457 157 457 157 476 251 c 2,75,-1
 485 297 l 1,64,65
EndSplineSet
Validated: 1
EndChar

StartChar: A
Encoding: 65 65 32
Width: 741
Flags: W
LayerCount: 2
Fore
SplineSet
692 50 m 17,0,-1
 620 50 l 1,1,-1
 392 722 l 1,2,3
 328 722 l 1,4,-1
 122 50 l 1,5,-1
 49 50 l 9,6,-1
 50 0 l 1,7,-1
 263 0 l 9,8,-1
 263 50 l 1,9,-1
 186 50 l 1,10,-1
 240 224 l 1,11,-1
 496 224 l 1,12,-1
 555 50 l 1,13,-1
 478 50 l 9,14,-1
 478 0 l 1,15,-1
 691 0 l 9,16,-1
 692 50 l 17,0,-1
480 277 m 1,17,-1
 252 277 l 1,18,-1
 359 623 l 1,19,-1
 480 277 l 1,17,-1
EndSplineSet
Validated: 9
EndChar

StartChar: B
Encoding: 66 66 33
Width: 583
Flags: W
LayerCount: 2
Fore
SplineSet
50 0 m 5,0,1
 49 52 l 5,2,-1
 123 52 l 5,3,-1
 123 681 l 5,4,-1
 50 681 l 5,5,-1
 50 733 l 5,6,-1
 270 733 l 2,7,8
 501 733 501 733 501 555 c 0,9,10
 501 484 501 484 460 436 c 0,11,12
 427 397 427 397 382 387 c 1,13,14
 538 357 538 357 538 210 c 0,15,16
 538 124 538 124 488 69 c 0,17,18
 424 0 424 0 333 0 c 2,19,-1
 50 0 l 5,0,1
434 554 m 0,20,21
 434 640 434 640 352 669 c 0,22,23
 318 680 318 680 270 680 c 2,24,-1
 189 680 l 5,25,-1
 189 409 l 5,26,-1
 255 409 l 2,27,28
 434 409 434 409 434 554 c 0,20,21
469 212 m 0,29,30
 469 353 469 353 269 353 c 2,31,-1
 189 353 l 5,32,-1
 189 53 l 5,33,-1
 289 53 l 2,34,35
 388 53 388 53 434 102 c 0,36,37
 469 140 469 140 469 212 c 0,29,30
EndSplineSet
Validated: 1
EndChar

StartChar: C
Encoding: 67 67 34
Width: 609
Flags: W
LayerCount: 2
Fore
SplineSet
546 554 m 1,0,1
 493 553 l 1,2,-1
 493 639 l 1,3,4
 448 667 448 667 441 670 c 0,5,6
 398 687 398 687 317 687 c 0,7,8
 248 687 248 687 192 638 c 0,9,10
 97 554 97 554 97 365 c 0,11,12
 97 189 97 189 175 105 c 0,13,14
 231 44 231 44 308 44 c 0,15,16
 413 44 413 44 491 94 c 1,17,-1
 491 178 l 1,18,19
 544 177 l 1,20,-1
 544 61 l 1,21,22
 518 37 518 37 462 15 c 0,23,24
 388 -14 388 -14 308 -14 c 0,25,26
 188 -14 188 -14 112 73 c 0,27,28
 22 175 22 175 22 370 c 0,29,30
 22 588 22 588 156 688 c 0,31,32
 232 744 232 744 320 744 c 0,33,34
 465 744 465 744 546 669 c 1,35,-1
 546 554 l 1,0,1
EndSplineSet
Validated: 1
EndChar

StartChar: D
Encoding: 68 68 35
Width: 654
Flags: W
LayerCount: 2
Fore
SplineSet
602 360 m 0,0,1
 602 187 602 187 507 91 c 0,2,3
 417 0 417 0 263 0 c 2,4,-1
 50 0 l 1,5,6
 49 54 l 1,7,-1
 122 54 l 1,8,-1
 122 679 l 1,9,-1
 50 679 l 1,10,-1
 50 733 l 1,11,-1
 259 733 l 2,12,13
 397 733 397 733 489 652 c 0,14,15
 602 552 602 552 602 360 c 0,0,1
533 364 m 0,16,17
 533 526 533 526 439 611 c 0,18,19
 365 679 365 679 259 679 c 2,20,-1
 189 679 l 1,21,-1
 189 54 l 1,22,-1
 265 54 l 2,23,24
 378 54 378 54 449 122 c 0,25,26
 533 203 533 203 533 364 c 0,16,17
EndSplineSet
Validated: 1
EndChar

StartChar: E
Encoding: 69 69 36
Width: 521
Flags: W
LayerCount: 2
Fore
SplineSet
434 603 m 1,0,-1
 434 677 l 1,1,-1
 190 678 l 1,2,-1
 190 405 l 1,3,-1
 334 405 l 1,4,-1
 334 452 l 1,5,6
 388 452 l 1,7,-1
 388 314 l 1,8,9
 334 314 l 1,10,-1
 334 352 l 1,11,-1
 190 352 l 1,12,-1
 190 55 l 1,13,-1
 449 55 l 1,14,-1
 449 129 l 1,15,16
 505 129 l 1,17,-1
 505 0 l 1,18,-1
 50 0 l 1,19,-1
 50 55 l 1,20,-1
 124 55 l 1,21,-1
 124 678 l 1,22,-1
 50 678 l 1,23,-1
 50 733 l 1,24,-1
 489 733 l 1,25,-1
 489 604 l 1,26,-1
 434 603 l 1,0,-1
EndSplineSet
Validated: 1
EndChar

StartChar: F
Encoding: 70 70 37
Width: 507
Flags: W
LayerCount: 2
Fore
SplineSet
497 733 m 1,0,-1
 497 604 l 5,1,2
 442 604 l 5,3,-1
 442 677 l 1,4,-1
 190 678 l 1,5,-1
 190 405 l 1,6,-1
 333 405 l 1,7,-1
 333 452 l 1,8,9
 387 452 l 1,10,-1
 387 314 l 1,11,12
 333 314 l 1,13,-1
 333 352 l 1,14,-1
 190 352 l 1,15,-1
 190 50 l 1,16,-1
 264 50 l 1,17,-1
 264 0 l 1,18,-1
 50 0 l 1,19,-1
 50 50 l 1,20,-1
 125 50 l 1,21,-1
 125 678 l 1,22,-1
 50 678 l 1,23,-1
 50 733 l 1,24,-1
 497 733 l 1,0,-1
EndSplineSet
Validated: 1
EndChar

StartChar: G
Encoding: 71 71 38
Width: 617
Flags: W
LayerCount: 2
Fore
SplineSet
321 743 m 0,0,1
 469 743 469 743 549 663 c 1,2,-1
 549 548 l 1,3,4
 496 547 l 1,5,-1
 496 633 l 1,6,7
 454 662 454 662 448 665 c 0,8,9
 402 685 402 685 321 685 c 0,10,11
 242 685 242 685 177 616 c 1,12,13
 95 527 95 527 95 363 c 0,14,15
 95 187 95 187 173 104 c 0,16,17
 230 44 230 44 307 44 c 0,18,19
 445 44 445 44 502 144 c 1,20,-1
 502 260 l 1,21,-1
 400 260 l 2,22,23
 400 315 l 1,24,-1
 566 315 l 1,25,-1
 567 0 l 5,26,27
 502 0 l 5,28,-1
 502 62 l 1,29,30
 436 -14 436 -14 305 -14 c 0,31,32
 185 -14 185 -14 110 72 c 0,33,34
 22 173 22 173 22 368 c 0,35,36
 22 554 22 554 129 659 c 0,37,38
 215 743 215 743 321 743 c 0,0,1
EndSplineSet
Validated: 1
EndChar

StartChar: H
Encoding: 72 72 39
Width: 688
Flags: W
LayerCount: 2
Fore
SplineSet
635 733 m 1,0,1
 635 683 l 1,2,-1
 564 683 l 1,3,-1
 564 50 l 1,4,-1
 634 50 l 1,5,6
 635 0 l 1,7,-1
 421 0 l 1,8,9
 421 50 l 1,10,-1
 495 50 l 1,11,-1
 495 349 l 1,12,-1
 189 349 l 1,13,-1
 189 50 l 1,14,-1
 263 50 l 1,15,16
 263 0 l 1,17,-1
 50 0 l 1,18,19
 49 50 l 1,20,-1
 122 50 l 1,21,-1
 122 683 l 1,22,-1
 50 683 l 1,23,24
 50 733 l 1,25,-1
 263 733 l 1,26,27
 263 683 l 1,28,-1
 189 683 l 1,29,-1
 189 407 l 1,30,-1
 495 407 l 1,31,-1
 495 683 l 1,32,-1
 421 683 l 1,33,34
 421 733 l 1,35,-1
 635 733 l 1,0,1
EndSplineSet
Validated: 1
EndChar

StartChar: I
Encoding: 73 73 40
Width: 311
Flags: W
LayerCount: 2
Fore
SplineSet
264 733 m 1,0,1
 264 683 l 1,2,-1
 190 683 l 1,3,-1
 190 50 l 1,4,-1
 264 50 l 1,5,6
 264 0 l 1,7,-1
 50 0 l 1,8,9
 49 50 l 5,10,-1
 122 50 l 1,11,-1
 122 683 l 1,12,-1
 50 683 l 1,13,14
 50 733 l 1,15,-1
 264 733 l 1,0,1
EndSplineSet
Validated: 1
EndChar

StartChar: J
Encoding: 74 74 41
Width: 391
Flags: W
LayerCount: 2
Fore
SplineSet
339 683 m 1,0,-1
 265 683 l 1,1,-1
 265 187 l 2,2,3
 265 100 265 100 251 61 c 0,4,5
 223 -12 223 -12 138 -12 c 0,6,7
 92 -12 92 -12 29 23 c 1,8,9
 53 76 l 1,10,11
 91 45 91 45 134 45 c 0,12,13
 163 45 163 45 180 68 c 0,14,15
 196 88 196 88 196 113 c 0,16,17
 197 159 197 159 197 191 c 2,18,-1
 197 683 l 1,19,-1
 125 683 l 1,20,-1
 125 733 l 1,21,-1
 339 733 l 1,22,-1
 339 683 l 1,0,-1
EndSplineSet
Validated: 1
EndChar

StartChar: K
Encoding: 75 75 42
Width: 678
Flags: W
LayerCount: 2
Fore
SplineSet
50 0 m 1,0,1
 49 50 l 1,2,-1
 123 50 l 1,3,-1
 123 683 l 1,4,-1
 50 683 l 1,5,6
 50 733 l 1,7,-1
 263 733 l 1,8,9
 263 683 l 1,10,-1
 189 683 l 1,11,-1
 189 389 l 1,12,-1
 441 683 l 1,13,-1
 377 683 l 1,14,15
 377 733 l 1,16,-1
 584 733 l 1,17,18
 584 683 l 1,19,-1
 515 683 l 1,20,-1
 295 427 l 1,21,-1
 543 50 l 1,22,-1
 616 50 l 1,23,24
 616 0 l 1,25,-1
 501 0 l 1,26,-1
 253 379 l 1,27,-1
 189 301 l 1,28,-1
 189 50 l 1,29,-1
 263 50 l 1,30,31
 263 0 l 1,32,-1
 50 0 l 1,0,1
EndSplineSet
Validated: 1
EndChar

StartChar: L
Encoding: 76 76 43
Width: 508
Flags: W
LayerCount: 2
Fore
SplineSet
503 0 m 1,0,-1
 50 0 l 1,1,2
 49 56 l 1,3,-1
 123 56 l 1,4,-1
 123 683 l 1,5,-1
 50 683 l 1,6,7
 50 733 l 1,8,-1
 263 733 l 1,9,10
 263 683 l 1,11,-1
 190 683 l 1,12,-1
 190 56 l 1,13,-1
 447 56 l 1,14,-1
 447 129 l 1,15,16
 503 129 l 1,17,-1
 503 0 l 1,0,-1
EndSplineSet
Validated: 1
EndChar

StartChar: M
Encoding: 77 77 44
Width: 852
Flags: W
LayerCount: 2
Fore
SplineSet
773 733 m 1,0,1
 773 683 l 1,2,-1
 700 683 l 1,3,-1
 728 50 l 1,4,-1
 802 50 l 1,5,6
 802 0 l 1,7,-1
 588 0 l 1,8,9
 588 50 l 1,10,-1
 662 50 l 1,11,-1
 635 650 l 1,12,-1
 463 65 l 1,13,14
 399 65 l 1,15,-1
 218 651 l 1,16,-1
 189 50 l 1,17,-1
 263 50 l 1,18,19
 263 0 l 1,20,-1
 50 0 l 1,21,22
 50 50 l 1,23,-1
 124 50 l 1,24,-1
 154 683 l 1,25,-1
 80 683 l 1,26,27
 80 733 l 1,28,-1
 218 733 l 2,29,30
 238.5 733 238.5 733 259 733 c 1,31,32
 428 158 l 1,33,-1
 594 733 l 1,34,35
 614.5 733 614.5 733 635 733 c 2,36,-1
 773 733 l 1,0,1
EndSplineSet
Validated: 1
EndChar

StartChar: N
Encoding: 78 78 45
Width: 698
Flags: W
LayerCount: 2
Fore
SplineSet
645 683 m 1,0,-1
 573 683 l 1,1,-1
 573 -1 l 25,2,3
 510 -1 l 1,4,-1
 189 648 l 1,5,-1
 189 50 l 1,6,-1
 263 50 l 1,7,8
 263 0 l 1,9,-1
 50 0 l 5,10,11
 50 50 l 5,12,-1
 124 50 l 1,13,-1
 124 683 l 1,14,-1
 50 683 l 1,15,16
 50 733 l 1,17,-1
 224 733 l 17,18,19
 507 161 l 1,20,-1
 506 683 l 1,21,-1
 431 683 l 1,22,-1
 431 733 l 1,23,-1
 645 733 l 1,24,-1
 645 683 l 1,0,-1
EndSplineSet
Validated: 1
EndChar

StartChar: O
Encoding: 79 79 46
Width: 618
Flags: W
LayerCount: 2
Fore
SplineSet
588 365 m 0,0,1
 588 192 588 192 512.5 89 c 128,-1,2
 437 -14 437 -14 309 -14 c 0,3,4
 179 -14 179 -14 104.5 88.5 c 128,-1,5
 30 191 30 191 30 365 c 0,6,7
 30 537 30 537 108 642.5 c 128,-1,8
 186 748 186 748 309 748 c 0,9,10
 425 748 425 748 501 658 c 0,11,12
 588 555 588 555 588 365 c 0,0,1
514 370 m 0,13,14
 514 529 514 529 449 615 c 0,15,16
 394 689 394 689 309 689 c 256,17,18
 224 689 224 689 168 615 c 0,19,20
 103 529 103 529 103 370 c 256,21,22
 103 211 103 211 169 121 c 0,23,24
 226 44 226 44 308 44 c 0,25,26
 392 44 392 44 449 121 c 0,27,28
 514 210 514 210 514 370 c 0,13,14
EndSplineSet
Validated: 1
EndChar

StartChar: P
Encoding: 80 80 47
Width: 502
Flags: W
LayerCount: 2
Fore
SplineSet
492 546 m 0,0,1
 492 448 492 448 415 392 c 0,2,3
 353 348 353 348 257 348 c 2,4,-1
 189 348 l 1,5,-1
 189 50 l 1,6,-1
 263 50 l 1,7,8
 263 0 l 1,9,-1
 50 0 l 1,10,11
 49 50 l 1,12,-1
 122 50 l 1,13,-1
 122 681 l 1,14,-1
 50 681 l 1,15,16
 50 733 l 1,17,-1
 261 733 l 2,18,19
 381 733 381 733 444 669 c 0,20,21
 492 619 492 619 492 546 c 0,0,1
425 544 m 0,22,23
 425 626 425 626 348 661 c 0,24,25
 306 680 306 680 257 680 c 2,26,-1
 189 680 l 1,27,-1
 189 404 l 1,28,-1
 252 404 l 2,29,30
 316 404 316 404 362 430 c 0,31,32
 425 466 425 466 425 544 c 0,22,23
EndSplineSet
Validated: 1
EndChar

StartChar: Q
Encoding: 81 81 48
Width: 625
Flags: W
LayerCount: 2
Fore
SplineSet
22 365 m 0,0,1
 22 537 22 537 100 642.5 c 128,-1,2
 178 748 178 748 301 748 c 0,3,4
 417 748 417 748 493 658 c 0,5,6
 580 555 580 555 580 365 c 0,7,8
 580 125 580 125 440 28 c 1,9,10
 457 -27 457 -27 518 -27 c 0,11,12
 544 -27 544 -27 579 -3 c 1,13,14
 605 -40 l 1,15,16
 564 -75 564 -75 518 -75 c 0,17,18
 420 -75 420 -75 398 5 c 1,19,20
 354 -14 354 -14 301 -14 c 0,21,22
 177 -14 177 -14 99.5 90 c 128,-1,23
 22 194 22 194 22 365 c 0,0,1
508 370 m 0,24,25
 508 529 508 529 442 617 c 0,26,27
 386 693 386 693 301 693 c 256,28,29
 216 693 216 693 159 617 c 0,30,31
 93 529 93 529 93 370 c 0,32,33
 93 185 93 185 185 96 c 1,34,35
 185 123 185 123 212 150 c 1,36,37
 247 183 247 183 302 183 c 0,38,39
 359 183 359 183 395 149 c 1,40,41
 424 123 424 123 424 98 c 1,42,43
 508 169 508 169 508 370 c 0,24,25
383 66 m 1,44,45
 383 93 383 93 360 115 c 128,-1,46
 337 137 337 137 302 137 c 0,47,48
 269 137 269 137 246 116.5 c 128,-1,49
 223 96 223 96 223 65 c 1,50,51
 262 41 262 41 301 41 c 0,52,53
 343 41 343 41 383 66 c 1,44,45
EndSplineSet
Validated: 1
EndChar

StartChar: R
Encoding: 82 82 49
Width: 585
Flags: W
LayerCount: 2
Fore
SplineSet
50 0 m 1,0,1
 49 50 l 1,2,-1
 123 50 l 1,3,-1
 123 681 l 1,4,-1
 50 681 l 1,5,6
 50 733 l 1,7,-1
 263 733 l 2,8,9
 367 733 367 733 423 686 c 128,-1,10
 479 639 479 639 479 551 c 0,11,12
 479 483 479 483 446 435 c 0,13,14
 400 369 400 369 298 354 c 1,15,-1
 486 50 l 1,16,-1
 548 50 l 1,17,18
 548 0 l 1,19,-1
 448 0 l 1,20,-1
 230 352 l 1,21,-1
 189 352 l 1,22,-1
 189 50 l 1,23,-1
 263 50 l 1,24,25
 263 0 l 1,26,-1
 50 0 l 1,0,1
414 547 m 0,27,28
 414 680 414 680 245 680 c 2,29,-1
 189 680 l 1,30,-1
 189 409 l 1,31,-1
 252 409 l 2,32,33
 414 409 414 409 414 547 c 0,27,28
EndSplineSet
Validated: 1
EndChar

StartChar: S
Encoding: 83 83 50
Width: 499
Flags: W
LayerCount: 2
Fore
SplineSet
260 743 m 0,0,1
 362 743 362 743 433 696 c 1,2,-1
 433 577 l 5,3,4
 380 576 l 1,5,-1
 380 661 l 1,6,7
 331 688 331 688 261 688 c 0,8,9
 198 688 198 688 158 659 c 0,10,11
 111 624 111 624 111 554 c 0,12,13
 111 506 111 506 150 473 c 1,14,15
 179 447 179 447 237 425 c 1,16,17
 283 409 283 409 328 393 c 1,18,19
 462 339 462 339 462 189 c 0,20,21
 462 116 462 116 405 57 c 0,22,23
 340 -10 340 -10 230 -11 c 0,24,25
 106 -12 106 -12 22 63 c 1,26,-1
 22 200 l 1,27,28
 75 200 l 1,29,-1
 75 96 l 1,30,31
 124 47 124 47 229 47 c 0,32,33
 304 47 304 47 354 98 c 0,34,35
 391 137 391 137 391 188 c 0,36,37
 391 251 391 251 365 288 c 0,38,39
 345 316 345 316 306 334 c 1,40,41
 273 346 273 346 241 358 c 0,42,43
 206 371 206 371 171 384 c 1,44,45
 116 409 116 409 84 442 c 0,46,47
 42 487 42 487 42 550 c 0,48,49
 42 668 42 668 144 717 c 0,50,51
 199 743 199 743 260 743 c 0,0,1
EndSplineSet
Validated: 33
EndChar

StartChar: T
Encoding: 84 84 51
Width: 554
Flags: W
LayerCount: 2
Fore
SplineSet
544 733 m 1,0,-1
 544 604 l 1,1,2
 489 604 l 1,3,-1
 489 678 l 1,4,-1
 311 679 l 1,5,-1
 311 50 l 1,6,-1
 395 50 l 1,7,8
 395 0 l 1,9,-1
 160 0 l 1,10,11
 160 50 l 1,12,-1
 242 50 l 1,13,-1
 242 679 l 1,14,-1
 65 678 l 1,15,-1
 65 604 l 1,16,17
 10 604 l 1,18,-1
 10 733 l 1,19,-1
 544 733 l 1,0,-1
EndSplineSet
Validated: 1
EndChar

StartChar: U
Encoding: 85 85 52
Width: 689
Flags: W
LayerCount: 2
Fore
SplineSet
641 683 m 1,0,-1
 568 683 l 1,1,-1
 568 220 l 2,2,3
 568 117 568 117 512 55 c 0,4,5
 452 -11 452 -11 341 -11 c 0,6,7
 231 -11 231 -11 172 57 c 1,8,9
 120 119 120 119 120 220 c 2,10,-1
 120 683 l 1,11,-1
 48 683 l 1,12,13
 48 733 l 1,14,-1
 261 733 l 1,15,16
 261 683 l 1,17,-1
 188 683 l 1,18,-1
 188 220 l 2,19,20
 188 50 188 50 341 50 c 0,21,22
 500 50 500 50 500 220 c 2,23,-1
 500 683 l 1,24,-1
 428 683 l 1,25,26
 428 733 l 1,27,-1
 641 733 l 1,28,29
 641 683 l 1,0,-1
EndSplineSet
Validated: 1
EndChar

StartChar: V
Encoding: 86 86 53
Width: 689
Flags: W
LayerCount: 2
Fore
SplineSet
646 683 m 1,0,-1
 573 683 l 1,1,-1
 378 0 l 1,2,3
 312 0 l 1,4,-1
 115 683 l 1,5,-1
 43 683 l 1,6,-1
 43 733 l 1,7,-1
 256 733 l 1,8,-1
 256 683 l 1,9,-1
 183 683 l 1,10,-1
 346 111 l 1,11,-1
 505 683 l 1,12,-1
 433 683 l 1,13,-1
 433 733 l 1,14,-1
 646 733 l 1,15,16
 647.5 722.599975586 647.5 722.599975586 646 683 c 1,0,-1
EndSplineSet
Validated: 33
EndChar

StartChar: W
Encoding: 87 87 54
Width: 885
Flags: W
LayerCount: 2
Fore
SplineSet
846 682 m 1,0,-1
 791 682 l 1,1,-1
 630 1 l 1,2,3
 562 1 l 1,4,-1
 441 457 l 1,5,-1
 331 1 l 1,6,7
 261 1 l 1,8,-1
 90 682 l 1,9,-1
 38 682 l 1,10,11
 38 732 l 1,12,-1
 216 733 l 1,13,14
 216 682 l 1,15,-1
 154 682 l 1,16,-1
 296 95 l 1,17,-1
 415 604 l 17,18,19
 466 604 l 1,20,-1
 594 99 l 1,21,-1
 727 682 l 1,22,-1
 667 682 l 1,23,24
 667 732 l 1,25,-1
 846 732 l 1,26,27
 846 682 l 1,0,-1
EndSplineSet
Validated: 1
EndChar

StartChar: X
Encoding: 88 88 55
Width: 600
Flags: W
LayerCount: 2
Fore
SplineSet
549 732 m 1,0,1
 549 682 l 1,2,-1
 499 682 l 1,3,-1
 342 386 l 1,4,-1
 504 50 l 1,5,-1
 565 50 l 1,6,7
 565 0 l 1,8,-1
 396 0 l 1,9,10
 396 50 l 1,11,-1
 435 50 l 1,12,-1
 307 318 l 1,13,-1
 179 50 l 1,14,-1
 222 50 l 1,15,16
 222 0 l 1,17,-1
 50 0 l 1,18,19
 50 50 l 1,20,-1
 111 50 l 1,21,-1
 272 386 l 1,22,-1
 116 682 l 1,23,-1
 69 682 l 1,24,25
 69 732 l 1,26,-1
 229 732 l 1,27,28
 229 682 l 1,29,-1
 184 682 l 1,30,-1
 307 447 l 1,31,-1
 430 682 l 1,32,-1
 385 682 l 1,33,34
 385 732 l 1,35,-1
 549 732 l 1,0,1
EndSplineSet
Validated: 1
EndChar

StartChar: Y
Encoding: 89 89 56
Width: 617
Flags: W
LayerCount: 2
Fore
SplineSet
573 683 m 1,0,-1
 514 683 l 1,1,-1
 337 319 l 1,2,-1
 337 50 l 1,3,-1
 408 50 l 1,4,5
 409 0 l 1,6,-1
 195 0 l 1,7,8
 195 50 l 1,9,-1
 269 50 l 1,10,-1
 269 319 l 1,11,-1
 95 683 l 1,12,-1
 43 683 l 1,13,14
 43 733 l 1,15,-1
 221 733 l 1,16,17
 221 683 l 1,18,-1
 162 683 l 1,19,-1
 304 389 l 1,20,-1
 448 683 l 1,21,-1
 394 683 l 1,22,23
 394 733 l 1,24,-1
 573 733 l 1,25,26
 573 683 l 1,0,-1
EndSplineSet
Validated: 1
EndChar

StartChar: Z
Encoding: 90 90 57
Width: 508
Flags: W
LayerCount: 2
Fore
SplineSet
457 733 m 1,0,1
 458 683 l 25,2,-1
 108 56 l 1,3,-1
 436 56 l 1,4,-1
 436 131 l 1,5,-1
 489 131 l 1,6,-1
 489 0 l 1,7,-1
 33 0 l 17,8,9
 33 50 l 9,10,-1
 381 675 l 1,11,-1
 87 675 l 1,12,-1
 87 600 l 1,13,-1
 33 600 l 1,14,-1
 33 733 l 1,15,-1
 457 733 l 1,0,1
EndSplineSet
Validated: 1
EndChar

StartChar: backslash
Encoding: 92 92 58
Width: 456
Flags: W
LayerCount: 2
Fore
SplineSet
71 822 m 1,0,-1
 443 -102 l 1,1,2
 450 -130 450 -130 428 -139 c 0,3,4
 423 -141 423 -141 418 -141 c 0,5,6
 402 -141 402 -141 391 -123 c 1,7,-1
 19 801 l 1,8,9
 13 829 13 829 35 837 c 0,10,11
 40 839 40 839 45 839 c 0,12,13
 61 839 61 839 71 822 c 1,14,-1
 71 822 l 1,0,-1
EndSplineSet
Validated: 37
EndChar

StartChar: asciicircum
Encoding: 94 94 59
Width: 489
Flags: W
LayerCount: 2
Fore
SplineSet
407 532 m 5,0,-1
 255 653 l 5,1,-1
 102 532 l 5,2,3
 78 573 l 13,4,5
 254.567164179 713 254.567164179 713 255 713 c 5,6,7
 262 707 262 707 431 573 c 5,8,-1
 407 532 l 5,0,-1
EndSplineSet
Validated: 1
EndChar

StartChar: underscore
Encoding: 95 95 60
Width: 856
Flags: W
LayerCount: 2
Fore
SplineSet
829 54 m 1,0,1
 857 50 857 50 857 26 c 0,2,3
 857 3 857 3 829 -2 c 1,4,-1
 21 -2 l 1,5,6
 -7 3 -7 3 -7 26 c 0,7,8
 -7 50 -7 50 21 54 c 1,9,-1
 829 54 l 1,10,-1
 829 54 l 1,0,1
EndSplineSet
Validated: 5
EndChar

StartChar: grave
Encoding: 96 96 61
Width: 489
Flags: W
LayerCount: 2
Fore
SplineSet
172 707 m 1,0,-1
 360 596 l 1,1,2
 373 585 373 585 373 571 c 0,3,4
 373 564 373 564 369 558 c 0,5,6
 362 545 362 545 348 545 c 0,7,8
 340 545 340 545 332 549 c 2,9,-1
 144 660 l 1,10,11
 129 671 129 671 129 685 c 0,12,13
 129 691 129 691 133 698 c 0,14,15
 141 711 141 711 156 711 c 0,16,17
 164 711 164 711 172 707 c 1,18,-1
 172 707 l 1,0,-1
172 707 m 1,19,-1
 360 596 l 1,20,21
 373 585 373 585 373 571 c 0,22,23
 373 564 373 564 369 558 c 0,24,25
 362 545 362 545 348 545 c 0,26,27
 340 545 340 545 332 549 c 2,28,-1
 144 660 l 1,29,30
 129 671 129 671 129 685 c 0,31,32
 129 691 129 691 133 698 c 0,33,34
 141 711 141 711 156 711 c 0,35,36
 164 711 164 711 172 707 c 1,37,-1
 172 707 l 1,19,-1
EndSplineSet
Validated: 5
EndChar

StartChar: a
Encoding: 97 97 62
Width: 511
Flags: W
LayerCount: 2
Fore
SplineSet
478 50 m 21,0,-1
 388 50 l 5,1,-1
 388 362 l 6,2,3
 388 522 388 522 232 522 c 4,4,5
 149 522 149 522 104 475 c 5,6,7
 68 439 68 439 68 392 c 5,8,-1
 125 392 l 5,9,10
 125 478 125 478 235 478 c 4,11,12
 302 478 302 478 319 425 c 4,13,14
 326 402 326 402 326 312 c 5,15,16
 47 312 47 312 40 144 c 4,17,18
 37 76 37 76 78 34 c 4,19,20
 121 -11 121 -11 205 -11 c 4,21,22
 246 -11 246 -11 285 14 c 4,23,24
 318 35 318 35 325 55 c 5,25,-1
 325 0 l 5,26,-1
 478 0 l 5,27,-1
 478 50 l 21,0,-1
325 257 m 5,28,-1
 325 141 l 6,29,30
 325 110 325 110 291 76 c 4,31,32
 253 39 253 39 207 39 c 4,33,34
 101 39 101 39 101 140 c 4,35,36
 101 219 101 219 192 245 c 4,37,38
 236 257 236 257 325 257 c 5,28,-1
EndSplineSet
Validated: 41
EndChar

StartChar: b
Encoding: 98 98 63
Width: 545
Flags: W
LayerCount: 2
Fore
SplineSet
28 683 m 25,0,-1
 113 683 l 1,1,-1
 113 61 l 2,2,3
 113 25 113 25 97 0 c 1,4,-1
 166 0 l 1,5,6
 177 18 177 18 177 40 c 2,7,-1
 177 47 l 1,8,9
 193 21 193 21 225 5 c 128,-1,10
 257 -11 257 -11 289 -11 c 0,11,12
 372 -11 372 -11 430 46 c 0,13,14
 501 116 501 116 501 248 c 0,15,16
 501 404 501 404 429 474 c 0,17,18
 378 523 378 523 306 523 c 0,19,20
 220 523 220 523 177 453 c 1,21,-1
 177 731 l 1,22,-1
 28 731 l 1,23,-1
 28 683 l 25,0,-1
431 256 m 0,24,25
 431 164 431 164 398 107 c 0,26,27
 360 40 360 40 286 40 c 0,28,29
 236 40 236 40 205 77 c 0,30,31
 177 111 177 111 177 158 c 2,32,33
 177 337 l 2,34,35
 177 401 177 401 217 440 c 0,36,37
 253 476 253 476 302 476 c 0,38,39
 365 476 365 476 398 414.5 c 128,-1,40
 431 353 431 353 431 256 c 0,24,25
EndSplineSet
Validated: 9
EndChar

StartChar: c
Encoding: 99 99 64
Width: 488
Flags: W
LayerCount: 2
Fore
SplineSet
376 155 m 17,0,1
 376 101.780487805 376 101.780487805 334 69 c 0,2,3
 299 42 299 42 254 42 c 256,4,5
 209 42 209 42 175 76 c 0,6,7
 121 131 121 131 121 255 c 0,8,9
 121 370 121 370 172 429 c 0,10,11
 211 474 211 474 264 474 c 0,12,13
 330 474 330 474 371 450 c 1,14,-1
 371 393 l 25,15,-1
 424 393 l 1,16,-1
 424 474 l 1,17,18
 361 524 361 524 265 524 c 0,19,20
 188 524 188 524 127 466 c 0,21,22
 50 392 50 392 50 258 c 0,23,24
 50 119 50 119 113 48 c 0,25,26
 166 -12 166 -12 249 -12 c 0,27,28
 356 -12 356 -12 405 60 c 1,29,30
 437 105 437 105 437 156 c 1,31,-1
 376 155 l 17,0,1
EndSplineSet
Validated: 9
EndChar

StartChar: d
Encoding: 100 100 65
Width: 556
Flags: W
LayerCount: 2
Fore
SplineSet
523 0 m 25,0,-1
 370 0 l 1,1,-1
 370 52 l 1,2,3
 363 23 363 23 312 1 c 0,4,5
 283 -11 283 -11 254 -11 c 0,6,7
 167 -11 167 -11 114 46 c 0,8,9
 51 113 51 113 51 248 c 0,10,11
 51 405 51 405 139 477 c 0,12,13
 196 523 196 523 260 523 c 0,14,15
 337 523 337 523 370 467 c 1,16,-1
 370 683 l 1,17,-1
 286.997070312 683.001953125 l 25,18,-1
 287 733 l 1,19,-1
 433 733 l 1,20,-1
 433 50 l 1,21,-1
 523 50 l 1,22,-1
 523 0 l 25,0,-1
370 347 m 1,23,24
 368 406 368 406 339.5 439.5 c 128,-1,25
 311 473 311 473 264 473 c 0,26,27
 209 473 209 473 167 424 c 1,28,29
 116 362 116 362 116 246 c 0,30,31
 116 178 116 178 141 122 c 0,32,33
 179 40 179 40 260 40 c 0,34,35
 304 40 304 40 337 80 c 128,-1,36
 370 120 370 120 370 181 c 2,37,-1
 370 347 l 1,38,39
 370 344 370 344 370 347 c 1,23,24
EndSplineSet
Validated: 5
EndChar

StartChar: e
Encoding: 101 101 66
Width: 489
Flags: W
LayerCount: 2
Fore
SplineSet
376 145 m 21,0,1
 359 39 359 39 249 39 c 4,2,3
 116 39 116 39 116 256 c 5,4,-1
 439 256 l 5,5,6
 439 407 439 407 367 475 c 4,7,8
 318 522 318 522 248 522 c 4,9,10
 176 522 176 522 120 464 c 4,11,12
 50 391 50 391 50 258 c 4,13,14
 50 134 50 134 101 63 c 4,15,16
 154 -11 154 -11 250 -11 c 4,17,18
 324 -11 324 -11 371 24 c 4,19,20
 427 65 427 65 434 147 c 5,21,-1
 376 145 l 21,0,1
373 310 m 5,22,-1
 119 310 l 5,23,24
 129 396 129 396 174 439 c 4,25,26
 209 472 209 472 254 472 c 4,27,28
 295 472 295 472 329 436 c 4,29,30
 373 391 373 391 373 310 c 5,22,-1
EndSplineSet
Validated: 9
EndChar

StartChar: f
Encoding: 102 102 67
Width: 386
Flags: W
LayerCount: 2
Fore
SplineSet
351 679 m 17,0,1
 336 686 336 686 320 693 c 1,2,3
 294 702 294 702 258 702 c 0,4,5
 219 702 219 702 196 668 c 0,6,7
 178 641 178 641 178 612 c 2,8,-1
 178 511 l 1,9,-1
 286 511 l 25,10,-1
 286 460 l 1,11,-1
 178 460 l 1,12,-1
 178 50 l 1,13,-1
 247 50 l 9,14,-1
 247 0 l 17,15,-1
 46 0 l 1,16,-1
 46 50 l 25,17,-1
 113 50 l 1,18,-1
 113 460 l 1,19,-1
 55 460 l 9,20,-1
 55 511 l 17,21,-1
 113 511 l 1,22,-1
 113 565 l 2,23,24
 113 750 113 750 265 750 c 0,25,26
 327 750 327 750 376 717 c 9,27,-1
 351 679 l 17,0,1
EndSplineSet
Validated: 1
EndChar

StartChar: g
Encoding: 103 103 68
Width: 541
Flags: W
LayerCount: 2
Fore
SplineSet
531 402 m 17,0,-1
 531 486 l 1,1,2
 492 517 492 517 455 517 c 0,3,4
 417 517 417 517 371 479 c 1,5,6
 333 505 333 505 332 505 c 0,7,8
 297 523 297 523 248 522 c 0,9,10
 193.456368618 522.256707348 193.456368618 522.256707348 145 495 c 0,11,12
 63.0509915014 448.90368272 63.0509915014 448.90368272 60 335 c 256,13,14
 57 223 57 223 145 177 c 1,15,16
 66 155 66 155 66 105 c 0,17,18
 66 53 66 53 138 40 c 1,19,20
 18 14 18 14 16 -91 c 0,21,22
 15 -143 15 -143 67 -188 c 0,23,24
 130 -243 130 -243 241 -243 c 0,25,26
 345 -243 345 -243 416.5 -198 c 128,-1,27
 488 -153 488 -153 488 -83 c 0,28,29
 488 -18 488 -18 434 22 c 0,30,31
 377 64 377 64 277 64 c 0,32,33
 181 64 181 64 151 74 c 0,34,35
 126 83 126 83 126 108 c 0,36,37
 126 142 126 142 193 148 c 0,38,39
 197 148 197 148 231 148 c 0,40,41
 257 148 257 148 284 153 c 0,42,43
 377.663843303 170.345156167 377.663843303 170.345156167 415 246 c 0,44,45
 432 281 432 281 435 323 c 0,46,47
 437 353 437 353 427 391.5 c 128,-1,48
 417 430 417 430 403 447 c 1,49,50
 424 468 424 468 450 468 c 0,51,52
 466 468 466 468 478 457 c 1,53,-1
 478 402 l 1,54,-1
 531 402 l 17,0,-1
367 339 m 0,55,56
 367 271 367 271 336.5 232 c 128,-1,57
 306 193 306 193 250 193 c 0,58,59
 129 193 129 193 129 339 c 0,60,61
 129 402 129 402 166 441 c 0,62,63
 200 477 200 477 249 477 c 0,64,65
 297 477 297 477 331 441 c 0,66,67
 367 402 367 402 367 339 c 0,55,56
  Spiro
    359.375 278.25 o
    336.5 232 o
    299.625 202.75 o
    250 193 o
    159.25 229.5 o
    129 339 o
    138.25 396 o
    166 441 o
    203.75 468 o
    249 477 o
    293.5 468 o
    331 441 o
    358 396 o
    367 339 o
    0 0 z
  EndSpiro
415 -82 m 0,68,69
 415 -138 415 -138 366.5 -166.5 c 128,-1,70
 318 -195 318 -195 241 -195 c 0,71,72
 172 -195 172 -195 132 -168 c 0,73,74
 88 -139 88 -139 88 -85 c 0,75,76
 88 21 88 21 244 21 c 0,77,78
 415 21 415 21 415 -82 c 0,68,69
  Spiro
    402.875 -131.125 o
    366.5 -166.5 o
    310.875 -187.875 o
    241 -195 o
    179.25 -188.25 o
    132 -168 o
    99 -132.75 o
    88 -85 o
    127 -5.5 o
    244 21 o
    372.25 -4.75 o
    415 -82 o
    0 0 z
  EndSpiro
EndSplineSet
Validated: 41
EndChar

StartChar: h
Encoding: 104 104 69
Width: 613
Flags: W
LayerCount: 2
Fore
SplineSet
558 -0.0009765625 m 17,0,-1
 426 0 l 1,1,-1
 426 312 l 2,2,3
 426 381 426 381 413 412 c 0,4,5
 393 461 393 461 335 461 c 0,6,7
 252.279069767 461 252.279069767 461 216 357 c 0,8,9
 201 314 201 314 198 253 c 1,10,-1
 198 50 l 1,11,-1
 272 50 l 25,12,-1
 272 0 l 1,13,-1
 60 0 l 1,14,-1
 60 50 l 17,15,-1
 134 50 l 1,16,-1
 134 683 l 1,17,-1
 48 683 l 8,18,-1
 48 733 l 1,19,-1
 203 733 l 1,20,-1
 203 405 l 1,21,22
 239 520 239 520 361 520 c 0,23,24
 441.702702703 520 441.702702703 520 475 432 c 0,25,26
 489 395 489 395 491 343 c 1,27,-1
 491 50 l 1,28,-1
 558 50 l 9,29,30
 558 -0.0009765625 l 17,0,-1
EndSplineSet
Validated: 1
EndChar

StartChar: i
Encoding: 105 105 70
Width: 310
Flags: W
LayerCount: 2
Fore
SplineSet
262 0 m 29,0,-1
 49 0 l 5,1,-1
 49 50 l 21,2,-1
 124 50 l 5,3,-1
 124 460 l 5,4,-1
 38 460 l 5,5,-1
 38 511 l 21,6,-1
 187 511 l 5,7,-1
 187 50 l 5,8,-1
 262 50 l 5,9,-1
 262 0 l 29,0,-1
202 683 m 256,10,11
 202 664 202 664 188.5 650 c 128,-1,12
 175 636 175 636 156 636 c 0,13,14
 136 636 136 636 122.5 650 c 128,-1,15
 109 664 109 664 109 683 c 256,16,17
 109 702 109 702 122.5 716 c 128,-1,18
 136 730 136 730 156 730 c 0,19,20
 175 730 175 730 188.5 716 c 128,-1,21
 202 702 202 702 202 683 c 256,10,11
EndSplineSet
Validated: 1
EndChar

StartChar: j
Encoding: 106 106 71
Width: 306
Flags: W
LayerCount: 2
Fore
SplineSet
7 -206 m 16,0,1
 63.19140625 -240 63.19140625 -240 118 -240 c 0,2,3
 195.473684211 -240 195.473684211 -240 226 -182 c 0,4,5
 246 -144 246 -144 246 -67 c 2,6,-1
 246 511 l 1,7,-1
 96 511 l 9,8,-1
 96 460 l 1,9,-1
 182 460 l 1,10,-1
 182 -100 l 2,11,12
 182 -184 182 -184 114 -184 c 0,13,14
 66 -184 66 -184 37 -160 c 1,15,-1
 7 -206 l 16,0,1
261 683 m 256,16,17
 261 664 261 664 247 650 c 128,-1,18
 233 636 233 636 214 636 c 0,19,20
 194 636 194 636 180.5 650 c 128,-1,21
 167 664 167 664 167 683 c 256,22,23
 167 702 167 702 180.5 716 c 128,-1,24
 194 730 194 730 214 730 c 0,25,26
 233 730 233 730 247 716 c 128,-1,27
 261 702 261 702 261 683 c 256,16,17
EndSplineSet
Validated: 9
EndChar

StartChar: k
Encoding: 107 107 72
Width: 589
Flags: W
LayerCount: 2
Fore
SplineSet
512.5 460 m 9,0,-1
 513 510 l 1,1,-1
 323 510 l 9,2,-1
 323 460 l 1,3,-1
 380 460 l 1,4,5
 236 341 236 341 183 297 c 1,6,-1
 183 733 l 1,7,-1
 32 733 l 9,8,-1
 32 683 l 1,9,-1
 119 683 l 1,10,-1
 119 50 l 1,11,-1
 45 50 l 1,12,-1
 45 0 l 1,13,-1
 256 0 l 1,14,-1
 256 50 l 25,15,-1
 183 50 l 1,16,-1
 183 232 l 1,17,-1
 248 283 l 1,18,-1
 419 0 l 1,19,-1
 534 0 l 1,20,-1
 534 50 l 25,21,-1
 459 50 l 1,22,-1
 293 321 l 1,23,-1
 457 460 l 1,24,-1
 512.5 460 l 9,0,-1
EndSplineSet
Validated: 9
EndChar

StartChar: l
Encoding: 108 108 73
Width: 310
Flags: W
LayerCount: 2
Fore
SplineSet
267 0 m 25,0,-1
 54 0 l 1,1,-1
 54.75 54.25 l 17,2,-1
 129 54 l 1,3,-1
 129 679 l 1,4,-1
 42 679 l 9,5,-1
 42 733 l 1,6,-1
 192 733 l 1,7,-1
 192 54 l 1,8,-1
 267 54 l 1,9,-1
 267 0 l 25,0,-1
EndSplineSet
Validated: 1
EndChar

StartChar: m
Encoding: 109 109 74
Width: 904
Flags: W
LayerCount: 2
Fore
SplineSet
272 0 m 21,0,-1
 60 0 l 1,50,-1
 60 50.5 l 17,49,-1
 134 50 l 1,48,-1
 134 460 l 1,47,-1
 48 460 l 1,46,-1
 48 511 l 25,45,-1
 198 511 l 1,44,-1
 198 396 l 1,43,-1
 240 520 240 520 362 520 c 0,41,42
 427 520 427 520 457 469 c 0,39,40
 475 438 475 438 475 409 c 1,37,38
 475 427 475 427 507 463 c 0,35,36
 557 519 557 519 641 519 c 0,33,34
 729 519 729 519 761 431 c 0,31,32
 774 394 774 394 776 343 c 1,29,30
 776 50 l 1,28,-1
 850 50 l 25,27,-1
 850 0 l 1,26,-1
 711 0 l 1,25,-1
 711 312 l 2,24,-1
 711 377 711 377 701 408 c 0,22,23
 683 461 683 461 630 461 c 0,20,21
 537 461 537 461 503 371 c 0,18,19
 487 329 487 329 487 269 c 2,16,17
 487 50 l 1,15,-1
 565 50 l 25,14,-1
 565 0 l 1,13,-1
 423 0 l 1,12,-1
 422 312 l 2,11,-1
 421.767141009 384.652005175 421.767141009 384.652005175 412 412 c 0,9,10
 394.5 461 394.5 461 336 461 c 0,7,8
 248 461 248 461 214 359 c 0,5,6
 198 310 198 310 198 253 c 2,3,4
 198 50 l 1,2,-1
 272 50 l 1,1,-1
 272 0 l 21,0,-1
EndSplineSet
Validated: 1
EndChar

StartChar: n
Encoding: 110 110 75
Width: 605
Flags: W
LayerCount: 2
Fore
SplineSet
557 50 m 25,0,-1
 491 50 l 1,1,-1
 491 341 l 2,2,3
 491 394 491 394 477 433 c 0,4,5
 446 520 446 520 360 520 c 0,6,7
 238 520 238 520 198 396 c 1,8,-1
 198 511 l 1,9,-1
 48 511 l 1,10,-1
 48 460 l 17,11,-1
 134 460 l 1,12,-1
 134 50 l 1,13,-1
 59.75 50 l 9,14,-1
 60 0 l 1,15,-1
 272 0 l 25,16,-1
 272 50 l 1,17,-1
 198 50 l 1,18,-1
 198 253 l 1,19,20
 199 330 199 330 229 388 c 0,21,22
 267 461 267 461 336 461 c 0,23,24
 394 461 394 461 414 412 c 0,25,26
 426 381 426 381 426 312 c 2,27,-1
 426 0 l 1,28,-1
 558 0 l 1,29,-1
 557 50 l 25,0,-1
EndSplineSet
Validated: 9
EndChar

StartChar: o
Encoding: 111 111 76
Width: 526
Flags: W
LayerCount: 2
Fore
SplineSet
475 258 m 0,0,1
 475 119 475 119 409 48 c 0,2,3
 353 -11 353 -11 264 -11 c 256,4,5
 175 -11 175 -11 118 48 c 0,6,7
 51 119 51 119 51 258 c 0,8,9
 51 391 51 391 126 464 c 0,10,11
 186 522 186 522 264 522 c 256,12,13
 342 522 342 522 402 464 c 1,14,15
 475 391 475 391 475 258 c 0,0,1
404 258 m 0,16,17
 404 369 404 369 352 427 c 1,18,19
 313 472 313 472 263 472 c 0,20,21
 209 472 209 472 171 428 c 0,22,23
 121 372 121 372 121 257 c 0,24,25
 121 131 121 131 176 76 c 0,26,27
 212 39 212 39 262 39 c 0,28,29
 323 39 323 39 359 85 c 0,30,31
 404 142 404 142 404 258 c 0,16,17
EndSplineSet
Validated: 1
EndChar

StartChar: p
Encoding: 112 112 77
Width: 560
Flags: W
LayerCount: 2
Fore
SplineSet
30 511 m 25,0,-1
 182 511 l 1,1,-1
 182 424 l 1,2,3
 190 457 190 457 229 485 c 0,4,5
 272 517 272 517 323 517 c 0,6,7
 382 517 382 517 426 482 c 0,8,9
 509 415 509 415 509 241 c 0,10,11
 509 79 509 79 411 19 c 0,12,13
 366 -9 366 -9 310 -9 c 0,14,15
 265 -9 265 -9 228 15 c 0,16,17
 203 32 203 32 182 60 c 1,18,-1
 182 -186 l 1,19,-1
 255 -186 l 1,20,-1
 255 -235 l 25,21,-1
 43 -235 l 1,22,-1
 43 -186 l 25,23,-1
 117 -186 l 1,24,-1
 117 460 l 1,25,-1
 30 460 l 1,26,-1
 30 511 l 25,0,-1
443 254 m 0,27,28
 443 338 443 338 414 397 c 0,29,30
 381 466 381 466 314 466 c 0,31,32
 265 466 265 466 227 427.5 c 128,-1,33
 189 389 189 389 185 340 c 0,34,35
 183 316 183 316 181 303 c 1,36,-1
 182 153 l 2,37,38
 183 143 183 143 188 123 c 1,39,40
 204 83 204 83 241 61 c 0,41,42
 272 42 272 42 307 42 c 0,43,44
 378 42 378 42 414 104 c 0,45,46
 444 156 444 156 443 254 c 0,27,28
EndSplineSet
Validated: 33
EndChar

StartChar: q
Encoding: 113 113 78
Width: 551
Flags: W
LayerCount: 2
Fore
SplineSet
442 512 m 17,0,-1
 377 512 l 25,1,-1
 377 441 l 1,2,3
 333 518 333 518 243 518 c 0,4,5
 179 518 179 518 128 472 c 0,6,7
 50 401 50 401 50 244 c 0,8,9
 50 95 50 95 136 30 c 0,10,11
 190 -11 190 -11 244 -8 c 1,12,13
 283.818181818 -8 283.818181818 -8 327 17 c 0,14,15
 346 28 346 28 364 48 c 0,16,17
 371 56 371 56 377 66 c 1,18,-1
 377 -185 l 1,19,-1
 304 -186 l 25,20,-1
 304 -234 l 1,21,-1
 516 -234 l 1,22,-1
 516 -185 l 25,23,-1
 442 -185 l 1,24,-1
 442 512 l 17,0,-1
250 467 m 0,25,26
 296 467 296 467 332 434 c 0,27,28
 377 393 377 393 377 320 c 2,29,-1
 377 173 l 2,30,31
 377 118 377 118 333 80 c 0,32,33
 295 47 295 47 251 47 c 0,34,35
 174 47 174 47 140 125 c 0,36,37
 117 177 117 177 117 247 c 0,38,39
 117 331 117 331 142 388 c 0,40,41
 176 467 176 467 250 467 c 0,25,26
EndSplineSet
Validated: 41
EndChar

StartChar: r
Encoding: 114 114 79
Width: 436
Flags: W
LayerCount: 2
Fore
SplineSet
60.25 0 m 9,0,-1
 60 50 l 1,1,-1
 135 50 l 1,2,-1
 135 460 l 1,3,-1
 48 460 l 1,4,-1
 48 511 l 17,5,-1
 198 511 l 1,6,-1
 198 404 l 1,7,8
 232 520 232 520 341 520 c 0,9,10
 400 520 400 520 428 489 c 1,11,-1
 428 395 l 1,12,-1
 375 395 l 17,13,-1
 375 456 l 1,14,15
 352 468 352 468 334 468 c 0,16,17
 241.75 468 241.75 468 210 341 c 0,18,19
 197 289 197 289 198 215 c 1,20,-1
 198 50 l 1,21,-1
 282.5 50 l 9,22,23
 283 0 l 1,24,-1
 60.25 0 l 9,0,-1
EndSplineSet
Validated: 33
EndChar

StartChar: s
Encoding: 115 115 80
Width: 402
Flags: W
LayerCount: 2
Fore
SplineSet
41 132 m 25,0,-1
 41 41 l 1,1,2
 95 -13 95 -13 196 -12 c 0,3,4
 265 -11 265 -11 312 26 c 0,5,6
 366 68 366 68 366 123 c 0,7,8
 366 224 366 224 266 271 c 1,9,10
 220 290 220 290 174 309 c 1,11,12
 122 337 122 337 122 384 c 0,13,14
 122 430 122 430 159 455 c 0,15,16
 188 474 188 474 223 474 c 0,17,18
 255 474 255 474 298 455 c 1,19,-1
 298.5 400.240234375 l 25,20,-1
 351 400 l 1,21,-1
 351 484 l 1,22,23
 292 523 292 523 222 523 c 0,24,25
 179 523 179 523 137 505 c 0,26,27
 57 470.714285714 57 470.714285714 57 382 c 0,28,29
 57 314 57 314 110 274 c 0,30,31
 122 265 122 265 172 243 c 0,32,33
 239 213 239 213 245 210 c 0,34,35
 299 183 299 183 299 125 c 0,36,37
 299 90 299 90 269 65 c 128,-1,38
 239 40 239 40 193 40 c 0,39,40
 161 40 161 40 129 52 c 0,41,42
 103 61 103 61 94 70 c 1,43,-1
 94 132 l 1,44,-1
 41 132 l 25,0,-1
EndSplineSet
Validated: 41
EndChar

StartChar: t
Encoding: 116 116 81
Width: 340
Flags: W
LayerCount: 2
Fore
SplineSet
299 62 m 17,0,1
 270 44 270 44 220 44 c 0,2,3
 172 44 172 44 159 88 c 0,4,5
 155 102 155 102 155 143 c 2,6,-1
 155 460 l 1,7,-1
 282 460 l 1,8,-1
 282 511 l 25,9,-1
 155 511 l 1,10,-1
 155 645 l 17,11,-1
 91 645 l 25,12,-1
 91 511 l 1,13,-1
 32 511 l 25,14,-1
 32 460 l 1,15,-1
 91 460 l 1,16,-1
 91 122 l 1,17,18
 88 86 88 86 101 54 c 0,19,20
 128 -11 128 -11 213 -11 c 0,21,22
 291.777777778 -11 291.777777778 -11 324 18 c 1,23,-1
 299 62 l 17,0,1
EndSplineSet
Validated: 41
EndChar

StartChar: u
Encoding: 117 117 82
Width: 595
Flags: W
LayerCount: 2
Fore
SplineSet
547 50 m 21,0,-1
 461 50 l 5,1,-1
 460 511 l 5,2,-1
 317 511 l 13,3,-1
 317 460 l 5,4,-1
 397 460 l 5,5,-1
 397 256 l 6,6,7
 397 179 397 179 388 147 c 4,8,9
 361 49 361 49 266 49 c 4,10,11
 204 49 204 49 183 110 c 4,12,13
 174 138 174 138 174 198 c 6,14,-1
 174 511 l 5,15,-1
 31 510.900390625 l 13,16,-1
 31 460 l 5,17,-1
 110 460 l 5,18,-1
 110 167 l 6,19,20
 110 118 110 118 129 74 c 4,21,22
 165 -10 165 -10 257 -10 c 4,23,24
 351 -10 351 -10 397 69 c 5,25,-1
 397 0 l 5,26,-1
 547 0 l 5,27,-1
 547 50 l 21,0,-1
EndSplineSet
Validated: 9
EndChar

StartChar: v
Encoding: 118 118 83
Width: 597
Flags: W
LayerCount: 2
Fore
SplineSet
260 0 m 21,0,-1
 95 460 l 1,1,-1
 43 460 l 1,2,-1
 43 510.000976562 l 25,3,-1
 217.5 508.849609375 l 9,4,-1
 218 460 l 1,5,-1
 162 460 l 1,6,-1
 294 71 l 5,7,-1
 428 460 l 1,8,-1
 377 460 l 1,9,-1
 377 510.000976562 l 25,10,-1
 553 510.000976562 l 25,11,-1
 553 460 l 1,12,-1
 494 460 l 1,13,-1
 326 0 l 5,14,-1
 260 0 l 21,0,-1
EndSplineSet
Validated: 1
EndChar

StartChar: w
Encoding: 119 119 84
Width: 856
Flags: W
LayerCount: 2
Fore
SplineSet
523 0 m 25,0,-1
 422 331 l 1,1,-1
 314 0 l 17,2,-1
 248 0 l 25,3,-1
 107 460 l 1,4,-1
 52 460 l 1,5,-1
 52 510 l 17,6,-1
 230.25 510.75 l 9,7,-1
 230 460 l 1,8,-1
 168 460 l 1,9,-1
 282 72 l 1,10,-1
 397 445 l 25,11,-1
 446 445 l 9,12,-1
 557 72 l 1,13,-1
 681 460 l 1,14,-1
 623 460 l 1,15,-1
 623 510 l 25,16,-1
 802 510 l 25,17,-1
 802 460 l 1,18,-1
 743 460 l 1,19,-1
 589 0 l 17,20,-1
 523 0 l 25,0,-1
EndSplineSet
Validated: 1
EndChar

StartChar: x
Encoding: 120 120 85
Width: 574
Flags: W
LayerCount: 2
Fore
SplineSet
363 50 m 17,0,-1
 399 50 l 1,1,-1
 288 219 l 1,2,-1
 175 50 l 1,3,-1
 215 50 l 1,4,-1
 215 0 l 17,5,-1
 49 0 l 1,6,-1
 49 50 l 17,7,-1
 107 50 l 1,8,-1
 252 265 l 1,9,-1
 107 461 l 1,10,-1
 62 461 l 1,11,-1
 62 511 l 16,12,-1
 219 511 l 1,13,-1
 219 461 l 17,14,-1
 175 461 l 1,15,-1
 288 309 l 1,16,-1
 399 461 l 1,17,-1
 356 461 l 1,18,-1
 356.5 510.900390625 l 17,19,-1
 515.5 510.900390625 l 25,20,-1
 516 461 l 1,21,-1
 468 461 l 1,22,-1
 322 265 l 1,23,-1
 468 50 l 1,24,-1
 526 50 l 9,25,-1
 526 0 l 1,26,-1
 363 0 l 1,27,-1
 363 50 l 17,0,-1
EndSplineSet
Validated: 1
EndChar

StartChar: y
Encoding: 121 121 86
Width: 591
Flags: W
LayerCount: 2
Fore
SplineSet
38 -209 m 17,0,1
 85 -240 85 -240 146 -240 c 0,2,3
 197 -240 197 -240 234 -206 c 0,4,5
 268 -174 268 -174 283 -125 c 1,6,-1
 491 460 l 1,7,-1
 552 460 l 9,8,-1
 552 510 l 1,9,-1
 373 510 l 9,10,-1
 373 460 l 1,11,-1
 425 460 l 1,12,-1
 293 85 l 1,13,-1
 159 460 l 1,14,-1
 218 460 l 9,15,-1
 218 510 l 1,16,-1
 40 510 l 9,17,-1
 40 460 l 1,18,-1
 92 460 l 1,19,-1
 261 0 l 1,20,-1
 227 -111 l 2,21,22
 204.63963964 -184 204.63963964 -184 153 -184 c 0,23,24
 105 -184 105 -184 68 -162 c 1,25,-1
 38 -209 l 17,0,1
EndSplineSet
Validated: 9
EndChar

StartChar: z
Encoding: 122 122 87
Width: 448
Flags: W
LayerCount: 2
Fore
SplineSet
45 50 m 17,0,-1
 331 453 l 1,1,-1
 105 453 l 1,2,-1
 105 378 l 1,3,-1
 51 378 l 17,4,-1
 51 511 l 1,5,-1
 405 511 l 25,6,-1
 404 461 l 25,7,-1
 119 56 l 1,8,-1
 362 56 l 1,9,-1
 362 126 l 9,10,-1
 415 126 l 1,11,-1
 415 0 l 1,12,-1
 45 0 l 9,13,14
 45 50 l 17,0,-1
EndSplineSet
Validated: 1
EndChar

StartChar: Adieresis
Encoding: 196 196 88
Width: 741
Flags: W
LayerCount: 2
Fore
SplineSet
505 810 m 256,0,1
 505 792 505 792 492.5 779 c 128,-1,2
 480 766 480 766 462 766 c 0,3,4
 443 766 443 766 430.5 779 c 128,-1,5
 418 792 418 792 418 810 c 256,6,7
 418 828 418 828 430.5 841 c 128,-1,8
 443 854 443 854 462 854 c 0,9,10
 480 854 480 854 492.5 841 c 128,-1,11
 505 828 505 828 505 810 c 256,0,1
296 810 m 256,12,13
 296 792 296 792 283.5 779 c 128,-1,14
 271 766 271 766 253 766 c 0,15,16
 234 766 234 766 221.5 779 c 128,-1,17
 209 792 209 792 209 810 c 256,18,19
 209 828 209 828 221.5 841 c 128,-1,20
 234 854 234 854 253 854 c 0,21,22
 271 854 271 854 283.5 841 c 128,-1,23
 296 828 296 828 296 810 c 256,12,13
719 25 m 256,24,25
 719 2 719 2 691 0 c 1,26,-1
 478 0 l 1,27,28
 450 2 450 2 450 25 c 256,29,30
 450 48 450 48 478 50 c 1,31,-1
 555 50 l 1,32,-1
 496 224 l 1,33,-1
 240 224 l 1,34,-1
 186 50 l 1,35,-1
 263 50 l 1,36,37
 291 48 291 48 291 25 c 256,38,39
 291 2 291 2 263 0 c 1,40,-1
 50 0 l 1,41,42
 22 2 22 2 22 25 c 256,43,44
 22 48 22 48 49 50 c 1,45,-1
 122 50 l 1,46,-1
 327 721 l 1,47,48
 337 746 337 746 358 746 c 0,49,50
 386 746 386 746 391 723 c 1,51,-1
 620 50 l 1,52,-1
 692 50 l 1,53,54
 719 48 719 48 719 25 c 256,24,25
480 277 m 1,55,-1
 359 623 l 1,56,-1
 252 277 l 1,57,-1
 480 277 l 1,55,-1
EndSplineSet
Validated: 1
EndChar

StartChar: Odieresis
Encoding: 214 214 89
Width: 618
Flags: W
LayerCount: 2
Fore
SplineSet
458 835 m 256,0,1
 458 817 458 817 445.5 804 c 128,-1,2
 433 791 433 791 415 791 c 0,3,4
 396 791 396 791 383.5 804 c 128,-1,5
 371 817 371 817 371 835 c 256,6,7
 371 853 371 853 383.5 866 c 128,-1,8
 396 879 396 879 415 879 c 0,9,10
 433 879 433 879 445.5 866 c 128,-1,11
 458 853 458 853 458 835 c 256,0,1
249 835 m 260,12,13
 249 817 249 817 236.5 804 c 132,-1,14
 224 791 224 791 206 791 c 4,15,16
 187 791 187 791 174.5 804 c 132,-1,17
 162 817 162 817 162 835 c 260,18,19
 162 853 162 853 174.5 866 c 132,-1,20
 187 879 187 879 206 879 c 4,21,22
 224 879 224 879 236.5 866 c 132,-1,23
 249 853 249 853 249 835 c 260,12,13
588 365 m 0,24,25
 588 192 588 192 512.5 89 c 128,-1,26
 437 -14 437 -14 309 -14 c 0,27,28
 179 -14 179 -14 104.5 88.5 c 128,-1,29
 30 191 30 191 30 365 c 0,30,31
 30 537 30 537 108 642.5 c 128,-1,32
 186 748 186 748 309 748 c 0,33,34
 425 748 425 748 501 658 c 0,35,36
 588 555 588 555 588 365 c 0,24,25
514 370 m 0,37,38
 514 529 514 529 449 615 c 0,39,40
 394 689 394 689 309 689 c 256,41,42
 224 689 224 689 168 615 c 0,43,44
 103 529 103 529 103 370 c 256,45,46
 103 211 103 211 169 121 c 0,47,48
 226 44 226 44 308 44 c 0,49,50
 392 44 392 44 449 121 c 0,51,52
 514 210 514 210 514 370 c 0,37,38
EndSplineSet
Validated: 1
EndChar

StartChar: Udieresis
Encoding: 220 220 90
Width: 689
Flags: W
LayerCount: 2
Fore
SplineSet
48 733 m 17,0,-1
 261 733 l 9,31,-1
 261 683 l 1,30,-1
 188 683 l 1,29,-1
 188 220 l 2,28,-1
 188 50 188 50 341 50 c 0,26,27
 500 50 500 50 500 220 c 2,24,25
 500 683 l 1,23,-1
 428 683 l 1,22,-1
 400 685 400 685 400 707 c 0,20,21
 400 731 400 731 428 733 c 1,18,19
 641 733 l 1,17,-1
 669 731 669 731 669 707 c 0,15,16
 669 685 669 685 641 683 c 1,13,14
 568 683 l 1,12,-1
 568 220 l 2,11,-1
 568 117 568 117 512 55 c 0,9,10
 452 -11 452 -11 341 -11 c 256,7,8
 230 -11 230 -11 172 57 c 0,5,6
 120 119 120 119 120 220 c 2,3,4
 120 683 l 1,2,-1
 48 683 l 1,1,-1
 48 733 l 17,0,-1
490 810 m 256,34,35
 490 792 490 792 477.5 779 c 128,-1,36
 465 766 465 766 447 766 c 0,37,38
 428 766 428 766 415.5 779 c 128,-1,39
 403 792 403 792 403 810 c 256,40,41
 403 828 403 828 415.5 841 c 128,-1,42
 428 854 428 854 447 854 c 0,43,44
 465 854 465 854 477.5 841 c 128,-1,45
 490 828 490 828 490 810 c 256,34,35
281 810 m 256,46,47
 281 792 281 792 268.5 779 c 128,-1,48
 256 766 256 766 238 766 c 0,49,50
 219 766 219 766 206.5 779 c 128,-1,51
 194 792 194 792 194 810 c 256,52,53
 194 828 194 828 206.5 841 c 128,-1,54
 219 854 219 854 238 854 c 0,55,56
 256 854 256 854 268.5 841 c 128,-1,57
 281 828 281 828 281 810 c 256,46,47
EndSplineSet
Validated: 1
EndChar

StartChar: aacute
Encoding: 225 225 91
Width: 511
Flags: W
LayerCount: 2
Fore
SplineSet
321 707 m 5,0,-1
 349 660 l 5,1,-1
 191.5 567.200195312 l 5,2,-1
 163.5 614.200195312 l 5,3,-1
 321 707 l 5,4,-1
 321 707 l 5,0,-1
EndSplineSet
Refer: 62 97 N 1 0 0 1 0 0 2
Validated: 5
EndChar

StartChar: agrave
Encoding: 224 224 92
Width: 511
Flags: W
LayerCount: 2
Fore
SplineSet
176 707 m 5,0,-1
 327.5 616.200195312 l 5,1,-1
 299.5 569.200195312 l 5,2,-1
 148 660 l 5,3,-1
 176 707 l 5,4,-1
 176 707 l 5,0,-1
EndSplineSet
Refer: 62 97 N 1 0 0 1 0 0 2
Validated: 5
EndChar

StartChar: acircumflex
Encoding: 226 226 93
Width: 511
Flags: W
LayerCount: 2
Fore
SplineSet
386 532 m 5,0,-1
 234 653 l 5,1,-1
 81 532 l 5,2,-1
 57 573 l 13,3,4
 233.567382812 713 233.567382812 713 234 713 c 5,5,6
 241 707 241 707 410 573 c 5,7,-1
 386 532 l 5,0,-1
EndSplineSet
Refer: 62 97 N 1 0 0 1 0 0 2
Validated: 9
EndChar

StartChar: adieresis
Encoding: 228 228 94
Width: 511
Flags: W
LayerCount: 2
Fore
SplineSet
379 631 m 256,0,1
 379 613 379 613 366.5 600 c 0,2,3
 354 587 354 587 336 587 c 256,4,5
 318 587 318 587 305 600 c 0,6,7
 292 613 292 613 292 631 c 256,8,9
 292 649 292 649 305 662 c 0,10,11
 318 675 318 675 336 675 c 256,12,13
 354 675 354 675 366.5 662 c 0,14,15
 379 649 379 649 379 631 c 256,0,1
190 631 m 256,16,17
 190 613 190 613 177.5 600 c 0,18,19
 165 587 165 587 147 587 c 0,20,21
 128 587 128 587 115.5 600 c 0,22,23
 103 613 103 613 103 631 c 256,24,25
 103 649 103 649 115.5 662 c 0,26,27
 128 675 128 675 147 675 c 0,28,29
 165 675 165 675 177.5 662 c 0,30,31
 190 649 190 649 190 631 c 256,16,17
EndSplineSet
Refer: 62 97 S 1 0 0 1 0 0 2
Validated: 9
EndChar

StartChar: ccedilla
Encoding: 231 231 95
Width: 488
Flags: W
LayerCount: 2
Fore
SplineSet
265 524 m 0,0,1
 361 524 361 524 424 474 c 1,2,-1
 424 393 l 1,3,4
 420 365 420 365 397 365 c 0,5,6
 373 365 373 365 371 393 c 1,7,-1
 371 450 l 1,8,9
 330 474 330 474 264 474 c 0,10,11
 211 474 211 474 172 429 c 0,12,13
 121 370 121 370 121 255 c 0,14,15
 121 131 121 131 175 76 c 0,16,17
 209 42 209 42 254 42 c 256,18,19
 299 42 299 42 334 69 c 0,20,21
 375 101 375 101 375 154 c 0,22,23
 375 168 375 168 386 168 c 2,24,-1
 430 168 l 2,25,26
 437 168 437 168 437 156 c 0,27,28
 437 110 437 110 410 67 c 0,29,30
 368 -1 368 -1 278 -10 c 1,31,-1
 272 -11 l 1,32,33
 271 -23 271 -23 270 -52 c 1,34,35
 344 -59 344 -59 344 -114 c 0,36,37
 344 -146 344 -146 317 -164 c 0,38,39
 294 -180 294 -180 261 -180 c 0,40,41
 201 -180 201 -180 201 -165 c 0,42,43
 201 -163 201 -163 202 -161 c 1,44,45
 202 -158 202 -158 202 -157 c 2,46,-1
 205 -139 l 1,47,48
 207 -134 207 -134 210 -134 c 1,49,50
 208 -134 208 -134 225 -138 c 128,-1,51
 242 -142 242 -142 262 -142 c 0,52,53
 302 -142 302 -142 302 -115 c 0,54,55
 302 -94 302 -94 263 -89.5 c 128,-1,56
 224 -85 224 -85 224 -73 c 1,57,58
 224 -74 224 -74 225 -60 c 2,59,-1
 228 -11 l 1,60,61
 152 -3 152 -3 105 57 c 0,62,63
 50 128 50 128 50 258 c 0,64,65
 50 392 50 392 127 466 c 0,66,67
 188 524 188 524 265 524 c 0,0,1
EndSplineSet
Validated: 1
EndChar

StartChar: eacute
Encoding: 233 233 96
Width: 489
Flags: W
LayerCount: 2
Fore
SplineSet
321 707 m 5,0,-1
 349 660 l 5,1,-1
 191.5 567.200195312 l 5,2,-1
 163.5 614.200195312 l 5,3,-1
 321 707 l 5,4,-1
 321 707 l 5,0,-1
EndSplineSet
Refer: 66 101 N 1 0 0 1 0 0 2
Validated: 5
EndChar

StartChar: egrave
Encoding: 232 232 97
Width: 489
Flags: W
LayerCount: 2
Fore
SplineSet
186 707 m 5,0,-1
 337.5 616.200195312 l 5,1,-1
 309.5 569.200195312 l 5,2,-1
 158 660 l 5,3,-1
 186 707 l 5,4,-1
 186 707 l 5,0,-1
EndSplineSet
Refer: 66 101 N 1 0 0 1 0 0 2
Validated: 5
EndChar

StartChar: ecircumflex
Encoding: 234 234 98
Width: 489
Flags: W
LayerCount: 2
Fore
SplineSet
400 532 m 5,0,-1
 248 653 l 5,1,-1
 95 532 l 5,2,-1
 71 573 l 13,3,4
 247.567382812 713 247.567382812 713 248 713 c 5,5,6
 255 707 255 707 424 573 c 5,7,-1
 400 532 l 5,0,-1
EndSplineSet
Refer: 66 101 N 1 0 0 1 0 0 2
Validated: 9
EndChar

StartChar: iacute
Encoding: 237 237 99
Width: 489
Flags: W
LayerCount: 2
Fore
SplineSet
202 707 m 5,0,-1
 230 660 l 5,1,-1
 72.5 567.200195312 l 5,2,-1
 44.5 614.200195312 l 5,3,-1
 202 707 l 5,4,-1
 202 707 l 5,0,-1
262 0 m 25,5,-1
 49 0 l 1,6,-1
 49 50 l 17,7,-1
 124 50 l 1,8,-1
 124 460 l 1,9,-1
 38 460 l 1,10,-1
 38 511 l 17,11,-1
 187 511 l 1,12,-1
 187 50 l 1,13,-1
 262 50 l 1,14,-1
 262 0 l 25,5,-1
EndSplineSet
Validated: 5
EndChar

StartChar: igrave
Encoding: 236 236 100
Width: 489
Flags: W
LayerCount: 2
Fore
SplineSet
28 707 m 5,0,-1
 216 596 l 5,1,-1
 188 549 l 5,2,-1
 0 660 l 5,3,-1
 28 707 l 5,4,-1
 28 707 l 5,0,-1
262 0 m 25,5,-1
 49 0 l 1,6,-1
 49 50 l 17,7,-1
 124 50 l 1,8,-1
 124 460 l 1,9,-1
 38 460 l 1,10,-1
 38 511 l 17,11,-1
 187 511 l 1,12,-1
 187 50 l 1,13,-1
 262 50 l 1,14,-1
 262 0 l 25,5,-1
EndSplineSet
Validated: 5
EndChar

StartChar: icircumflex
Encoding: 238 238 101
Width: 310
Flags: W
LayerCount: 2
Fore
SplineSet
280 532 m 5,0,-1
 128 653 l 5,1,-1
 -25 532 l 5,2,3
 -49 573 l 13,4,5
 127.567382812 713 127.567382812 713 128 713 c 5,6,7
 135 707 135 707 304 573 c 5,8,-1
 280 532 l 5,0,-1
262 0 m 25,9,-1
 49 0 l 1,10,-1
 49 50 l 17,11,-1
 124 50 l 1,12,-1
 124 460 l 1,13,-1
 38 460 l 1,14,-1
 38 511 l 17,15,-1
 187 511 l 1,16,-1
 187 50 l 1,17,-1
 262 50 l 1,18,-1
 262 0 l 25,9,-1
EndSplineSet
Validated: 1
EndChar

StartChar: oacute
Encoding: 243 243 102
Width: 526
Flags: W
LayerCount: 2
Fore
SplineSet
321 707 m 5,0,-1
 349 660 l 5,1,-1
 191.5 567.200195312 l 5,2,-1
 163.5 614.200195312 l 5,3,-1
 321 707 l 5,4,-1
 321 707 l 5,0,-1
475 258 m 0,5,6
 475 119 475 119 409 48 c 0,7,8
 353 -11 353 -11 264 -11 c 256,9,10
 175 -11 175 -11 118 48 c 0,11,12
 51 119 51 119 51 258 c 0,13,14
 51 391 51 391 126 464 c 0,15,16
 186 522 186 522 264 522 c 256,17,18
 342 522 342 522 402 464 c 1,19,20
 475 391 475 391 475 258 c 0,5,6
404 258 m 0,21,22
 404 369 404 369 352 427 c 1,23,24
 313 472 313 472 263 472 c 0,25,26
 209 472 209 472 171 428 c 0,27,28
 121 372 121 372 121 257 c 0,29,30
 121 131 121 131 176 76 c 0,31,32
 212 39 212 39 262 39 c 0,33,34
 323 39 323 39 359 85 c 0,35,36
 404 142 404 142 404 258 c 0,21,22
EndSplineSet
Validated: 5
EndChar

StartChar: ograve
Encoding: 242 242 103
Width: 526
Flags: W
LayerCount: 2
Fore
SplineSet
176 707 m 5,0,-1
 327.5 616.200195312 l 5,1,-1
 299.5 569.200195312 l 5,2,-1
 148 660 l 5,3,-1
 176 707 l 5,4,-1
 176 707 l 5,0,-1
475 258 m 0,5,6
 475 119 475 119 409 48 c 0,7,8
 353 -11 353 -11 264 -11 c 256,9,10
 175 -11 175 -11 118 48 c 0,11,12
 51 119 51 119 51 258 c 0,13,14
 51 391 51 391 126 464 c 0,15,16
 186 522 186 522 264 522 c 256,17,18
 342 522 342 522 402 464 c 1,19,20
 475 391 475 391 475 258 c 0,5,6
404 258 m 0,21,22
 404 369 404 369 352 427 c 1,23,24
 313 472 313 472 263 472 c 0,25,26
 209 472 209 472 171 428 c 0,27,28
 121 372 121 372 121 257 c 0,29,30
 121 131 121 131 176 76 c 0,31,32
 212 39 212 39 262 39 c 0,33,34
 323 39 323 39 359 85 c 0,35,36
 404 142 404 142 404 258 c 0,21,22
EndSplineSet
Validated: 5
EndChar

StartChar: ocircumflex
Encoding: 244 244 104
Width: 526
Flags: W
LayerCount: 2
Fore
SplineSet
417 532 m 5,0,-1
 265 653 l 5,1,-1
 112 532 l 5,2,3
 88 573 l 13,4,5
 264.567382812 713 264.567382812 713 265 713 c 5,6,7
 272 707 272 707 441 573 c 5,8,-1
 417 532 l 5,0,-1
475 258 m 0,9,10
 475 119 475 119 409 48 c 0,11,12
 353 -11 353 -11 264 -11 c 256,13,14
 175 -11 175 -11 118 48 c 0,15,16
 51 119 51 119 51 258 c 0,17,18
 51 391 51 391 126 464 c 0,19,20
 186 522 186 522 264 522 c 256,21,22
 342 522 342 522 402 464 c 1,23,24
 475 391 475 391 475 258 c 0,9,10
404 258 m 0,25,26
 404 369 404 369 352 427 c 1,27,28
 313 472 313 472 263 472 c 0,29,30
 209 472 209 472 171 428 c 0,31,32
 121 372 121 372 121 257 c 0,33,34
 121 131 121 131 176 76 c 0,35,36
 212 39 212 39 262 39 c 0,37,38
 323 39 323 39 359 85 c 0,39,40
 404 142 404 142 404 258 c 0,25,26
EndSplineSet
Validated: 1
EndChar

StartChar: odieresis
Encoding: 246 246 105
Width: 526
Flags: W
LayerCount: 2
Fore
SplineSet
399 631 m 256,0,1
 399 613 399 613 386.5 600 c 128,-1,2
 374 587 374 587 356 587 c 256,3,4
 338 587 338 587 325 600 c 128,-1,5
 312 613 312 613 312 631 c 256,6,7
 312 649 312 649 325 662 c 128,-1,8
 338 675 338 675 356 675 c 256,9,10
 374 675 374 675 386.5 662 c 128,-1,11
 399 649 399 649 399 631 c 256,0,1
210 631 m 256,12,13
 210 613 210 613 197.5 600 c 128,-1,14
 185 587 185 587 167 587 c 0,15,16
 148 587 148 587 135.5 600 c 128,-1,17
 123 613 123 613 123 631 c 256,18,19
 123 649 123 649 135.5 662 c 128,-1,20
 148 675 148 675 167 675 c 0,21,22
 185 675 185 675 197.5 662 c 128,-1,23
 210 649 210 649 210 631 c 256,12,13
475 258 m 0,24,25
 475 119 475 119 409 48 c 0,26,27
 353 -11 353 -11 264 -11 c 256,28,29
 175 -11 175 -11 118 48 c 0,30,31
 51 119 51 119 51 258 c 0,32,33
 51 391 51 391 128 464 c 0,34,35
 189 522 189 522 264 522 c 0,36,37
 340 522 340 522 400 464 c 0,38,39
 475 391 475 391 475 258 c 0,24,25
405 258 m 0,40,41
 405 369 405 369 353 427 c 0,42,43
 313 472 313 472 263 472 c 0,44,45
 209 472 209 472 171 428 c 1,46,47
 120 372 120 372 120 257 c 0,48,49
 120 132 120 132 175 76 c 0,50,51
 212 39 212 39 262 39 c 0,52,53
 323 39 323 39 360 85 c 0,54,55
 405 142 405 142 405 258 c 0,40,41
EndSplineSet
Validated: 1
EndChar

StartChar: uacute
Encoding: 250 250 106
Width: 595
Flags: W
LayerCount: 2
Fore
SplineSet
321 707 m 5,0,-1
 349 660 l 5,1,-1
 191.5 567.200195312 l 5,2,-1
 163.5 614.200195312 l 5,3,-1
 321 707 l 5,4,-1
 321 707 l 5,0,-1
EndSplineSet
Refer: 82 117 N 1 0 0 1 0 0 2
Validated: 5
EndChar

StartChar: ugrave
Encoding: 249 249 107
Width: 595
Flags: W
LayerCount: 2
Fore
SplineSet
176 707 m 1,0,-1
 327.5 616.200195312 l 1,1,-1
 299.5 569.200195312 l 1,2,-1
 148 660 l 1,3,-1
 176 707 l 1,4,-1
 176 707 l 1,0,-1
EndSplineSet
Refer: 82 117 N 1 0 0 1 0 0 2
Validated: 5
EndChar

StartChar: ucircumflex
Encoding: 251 251 108
Width: 595
Flags: W
LayerCount: 2
Fore
SplineSet
407 532 m 5,0,-1
 255 653 l 5,1,-1
 102 532 l 5,2,-1
 78 573 l 13,3,4
 254.567164179 713 254.567164179 713 255 713 c 5,5,6
 262 707 262 707 431 573 c 5,7,-1
 407 532 l 5,0,-1
EndSplineSet
Refer: 82 117 N 1 0 0 1 0 0 2
Validated: 9
EndChar

StartChar: udieresis
Encoding: 252 252 109
Width: 591
Flags: W
LayerCount: 2
Fore
SplineSet
411 631 m 256,0,1
 411 613 411 613 398.5 600 c 0,2,3
 386 587 386 587 368 587 c 256,4,5
 350 587 350 587 337 600 c 0,6,7
 324 613 324 613 324 631 c 256,8,9
 324 649 324 649 337 662 c 0,10,11
 350 675 350 675 368 675 c 256,12,13
 386 675 386 675 398.5 662 c 0,14,15
 411 649 411 649 411 631 c 256,0,1
222 631 m 256,16,17
 222 613 222 613 209.5 600 c 0,18,19
 197 587 197 587 179 587 c 0,20,21
 160 587 160 587 147.5 600 c 0,22,23
 135 613 135 613 135 631 c 256,24,25
 135 649 135 649 147.5 662 c 0,26,27
 160 675 160 675 179 675 c 0,28,29
 197 675 197 675 209.5 662 c 0,30,31
 222 649 222 649 222 631 c 256,16,17
EndSplineSet
Refer: 82 117 S 1 0 0 1 0 0 2
Validated: 9
EndChar

StartChar: bullet
Encoding: 8226 8226 110
Width: 365
Flags: W
LayerCount: 2
Fore
SplineSet
290 279 m 256,0,1
 290 234 290 234 259 202.5 c 128,-1,2
 228 171 228 171 183 171 c 0,3,4
 139 171 139 171 107 202.5 c 128,-1,5
 75 234 75 234 75 279 c 256,6,7
 75 324 75 324 107 355.5 c 128,-1,8
 139 387 139 387 183 387 c 0,9,10
 228 387 228 387 259 355.5 c 128,-1,11
 290 324 290 324 290 279 c 256,0,1
EndSplineSet
Validated: 1
EndChar

StartChar: acute
Encoding: 180 180 111
Width: 489
Flags: W
LayerCount: 2
Fore
SplineSet
330 707 m 1,0,1
 338 711 338 711 346 711 c 0,2,3
 362 711 362 711 369 698 c 0,4,5
 373 691 373 691 373 685 c 0,6,7
 373 671 373 671 358 660 c 1,8,-1
 170 549 l 2,9,10
 162 545 162 545 154 545 c 0,11,12
 140 545 140 545 133 558 c 0,13,14
 129 564 129 564 129 571 c 0,15,16
 129 585 129 585 142 596 c 1,17,-1
 330 707 l 1,18,-1
 330 707 l 1,0,1
330 707 m 1,19,20
 338 711 338 711 346 711 c 0,21,22
 362 711 362 711 369 698 c 0,23,24
 373 691 373 691 373 685 c 0,25,26
 373 671 373 671 358 660 c 1,27,-1
 170 549 l 2,28,29
 162 545 162 545 154 545 c 0,30,31
 140 545 140 545 133 558 c 0,32,33
 129 564 129 564 129 571 c 0,34,35
 129 585 129 585 142 596 c 1,36,-1
 330 707 l 1,37,-1
 330 707 l 1,19,20
EndSplineSet
Validated: 5
EndChar

StartChar: guillemotleft
Encoding: 171 171 112
Width: 515
Flags: W
LayerCount: 2
Fore
SplineSet
419 513 m 1,0,1
 419 513 419 513 428 510 c 1,2,-1
 455 495 l 2,3,4
 464 490 464 490 464 485 c 0,5,6
 464 484 464 484 460 476 c 1,7,-1
 309 285 l 1,8,-1
 460 95 l 2,9,10
 465 89 465 89 465 86 c 0,11,12
 465 82 465 82 455 76 c 2,13,-1
 428 61 l 2,14,15
 423 58 423 58 419 58 c 0,16,17
 413 58 413 58 409 65 c 1,18,-1
 241 276 l 2,19,20
 236 281 236 281 236 285 c 0,21,22
 236 290 236 290 241 295 c 2,23,-1
 409 506 l 2,24,25
 415 513 415 513 419 513 c 1,0,1
213 513 m 1,26,27
 213 513 213 513 222 510 c 1,28,-1
 249 495 l 2,29,30
 258 490 258 490 258 485 c 0,31,32
 258 484 258 484 254 476 c 1,33,-1
 103 285 l 1,34,-1
 254 95 l 2,35,36
 259 89 259 89 259 86 c 0,37,38
 259 82 259 82 249 76 c 2,39,-1
 222 61 l 2,40,41
 217 58 217 58 213 58 c 0,42,43
 207 58 207 58 203 65 c 1,44,-1
 35 276 l 2,45,46
 30 281 30 281 30 285 c 0,47,48
 30 290 30 290 35 295 c 2,49,-1
 203 506 l 2,50,51
 209 513 209 513 213 513 c 1,26,27
EndSplineSet
Validated: 1
EndChar

StartChar: guillemotright
Encoding: 187 187 113
Width: 515
Flags: W
LayerCount: 2
Fore
SplineSet
485 285 m 0,0,1
 485 281 485 281 480 276 c 2,2,-1
 312 65 l 1,3,4
 308 58 308 58 302 58 c 0,5,6
 298 58 298 58 293 61 c 2,7,-1
 266 76 l 2,8,9
 256 82 256 82 256 86 c 0,10,11
 256 89 256 89 261 95 c 2,12,-1
 412 285 l 1,13,-1
 261 476 l 1,14,15
 257 484 257 484 257 485 c 0,16,17
 257 490 257 490 266 495 c 2,18,-1
 293 510 l 1,19,20
 302 513 302 513 302 513 c 1,21,22
 306 513 306 513 312 506 c 2,23,-1
 480 295 l 2,24,25
 485 290 485 290 485 285 c 0,0,1
279 285 m 0,26,27
 279 281 279 281 274 276 c 2,28,-1
 106 65 l 1,29,30
 102 58 102 58 96 58 c 0,31,32
 92 58 92 58 87 61 c 2,33,-1
 60 76 l 2,34,35
 50 82 50 82 50 86 c 0,36,37
 50 89 50 89 55 95 c 2,38,-1
 206 285 l 1,39,-1
 55 476 l 1,40,41
 51 484 51 484 51 485 c 0,42,43
 51 490 51 490 60 495 c 2,44,-1
 87 510 l 1,45,46
 96 513 96 513 96 513 c 1,47,48
 100 513 100 513 106 506 c 2,49,-1
 274 295 l 2,50,51
 279 290 279 290 279 285 c 0,26,27
EndSplineSet
Validated: 1
EndChar

StartChar: ellipsis
Encoding: 8230 8230 114
Width: 1018
Flags: W
LayerCount: 2
Fore
SplineSet
918 56 m 256,0,1
 918 31 918 31 900.5 13.5 c 128,-1,2
 883 -4 883 -4 858 -4 c 0,3,4
 834 -4 834 -4 816 13.5 c 128,-1,5
 798 31 798 31 798 56 c 256,6,7
 798 81 798 81 816 98.5 c 128,-1,8
 834 116 834 116 858 116 c 0,9,10
 883 116 883 116 900.5 98.5 c 128,-1,11
 918 81 918 81 918 56 c 256,0,1
569 56 m 256,12,13
 569 31 569 31 551.5 13.5 c 128,-1,14
 534 -4 534 -4 509 -4 c 256,15,16
 484 -4 484 -4 466.5 13.5 c 128,-1,17
 449 31 449 31 449 56 c 256,18,19
 449 81 449 81 466.5 98.5 c 128,-1,20
 484 116 484 116 509 116 c 256,21,22
 534 116 534 116 551.5 98.5 c 128,-1,23
 569 81 569 81 569 56 c 256,12,13
220 56 m 256,24,25
 220 31 220 31 202.5 13.5 c 128,-1,26
 185 -4 185 -4 160 -4 c 256,27,28
 135 -4 135 -4 117.5 13.5 c 128,-1,29
 100 31 100 31 100 56 c 256,30,31
 100 81 100 81 117.5 98.5 c 128,-1,32
 135 116 135 116 160 116 c 256,33,34
 185 116 185 116 202.5 98.5 c 128,-1,35
 220 81 220 81 220 56 c 256,24,25
EndSplineSet
Validated: 1
EndChar

StartChar: endash
Encoding: 8211 8211 116
Width: 500
Flags: W
LayerCount: 2
Fore
SplineSet
458 310 m 1,0,1
 486 306 486 306 486 282 c 0,2,3
 486 259 486 259 458 254 c 1,4,-1
 42 254 l 1,5,6
 14 259 14 259 14 282 c 0,7,8
 14 306 14 306 42 310 c 1,9,-1
 458 310 l 1,10,-1
 458 310 l 1,0,1
EndSplineSet
Validated: 5
EndChar

StartChar: emdash
Encoding: 8212 8212 117
Width: 1000
Flags: W
LayerCount: 2
Fore
SplineSet
901 310 m 1,0,1
 929 306 929 306 929 282 c 0,2,3
 929 259 929 259 901 254 c 1,4,-1
 93 254 l 1,5,6
 65 259 65 259 65 282 c 0,7,8
 65 306 65 306 93 310 c 1,9,-1
 901 310 l 1,10,-1
 901 310 l 1,0,1
EndSplineSet
Validated: 5
EndChar

StartChar: minus
Encoding: 173 173 118
AltUni2: 002212.ffffffff.0
Width: 399
Flags: W
LayerCount: 2
Fore
SplineSet
331 310 m 1,0,1
 359 306 359 306 359 282 c 0,2,3
 359 259 359 259 331 254 c 1,4,-1
 68 254 l 1,5,6
 40 259 40 259 40 282 c 0,7,8
 40 306 40 306 68 310 c 1,9,-1
 331 310 l 1,10,-1
 331 310 l 1,0,1
EndSplineSet
Validated: 5
EndChar

StartChar: quotesingle
Encoding: 39 39 119
Width: 233
Flags: W
LayerCount: 2
Fore
SplineSet
87 688 m 5,0,-1
 145 688 l 5,1,-1
 139 525 l 6,2,3
 137 492 137 492 114 492 c 4,4,5
 93 492 93 492 92 525 c 6,6,-1
 87 688 l 5,0,-1
EndSplineSet
Validated: 1
EndChar

StartChar: quoteright
Encoding: 8217 8217 120
Width: 249
Flags: W
LayerCount: 2
Fore
SplineSet
63 515 m 5,0,1
 101 540 101 540 119.5 568 c 132,-1,2
 138 596 138 596 138 640 c 5,3,4
 135 639 135 639 130 639 c 4,5,6
 109 639 109 639 93 652 c 132,-1,7
 77 665 77 665 77 689 c 4,8,9
 77 715 77 715 92 730 c 132,-1,10
 107 745 107 745 130 745 c 4,11,12
 159 745 159 745 176 721.5 c 132,-1,13
 193 698 193 698 193 654 c 4,14,15
 193 594 193 594 165.5 550.5 c 132,-1,16
 138 507 138 507 86 477 c 5,17,-1
 63 515 l 5,0,1
EndSplineSet
Validated: 1
EndChar

StartChar: quoteleft
Encoding: 8216 8216 121
Width: 249
Flags: W
LayerCount: 2
Fore
SplineSet
187 706 m 1,0,1
 149 681 149 681 130 653 c 128,-1,2
 111 625 111 625 111 582 c 1,3,4
 114 583 114 583 120 583 c 0,5,6
 140 583 140 583 156.5 570 c 128,-1,7
 173 557 173 557 173 532 c 0,8,9
 173 506 173 506 158 491.5 c 128,-1,10
 143 477 143 477 120 477 c 0,11,12
 90 477 90 477 73.5 500 c 128,-1,13
 57 523 57 523 57 567 c 0,14,15
 57 627 57 627 84 671 c 128,-1,16
 111 715 111 715 163 745 c 1,17,-1
 187 706 l 1,0,1
EndSplineSet
Validated: 1
EndChar

StartChar: edieresis
Encoding: 235 235 122
Width: 489
Flags: W
LayerCount: 2
Fore
SplineSet
379 631 m 256,0,1
 379 613 379 613 366.5 600 c 0,2,3
 354 587 354 587 336 587 c 256,4,5
 318 587 318 587 305 600 c 0,6,7
 292 613 292 613 292 631 c 256,8,9
 292 649 292 649 305 662 c 0,10,11
 318 675 318 675 336 675 c 256,12,13
 354 675 354 675 366.5 662 c 0,14,15
 379 649 379 649 379 631 c 256,0,1
190 631 m 256,16,17
 190 613 190 613 177.5 600 c 0,18,19
 165 587 165 587 147 587 c 0,20,21
 128 587 128 587 115.5 600 c 0,22,23
 103 613 103 613 103 631 c 256,24,25
 103 649 103 649 115.5 662 c 0,26,27
 128 675 128 675 147 675 c 0,28,29
 165 675 165 675 177.5 662 c 0,30,31
 190 649 190 649 190 631 c 256,16,17
EndSplineSet
Refer: 66 101 S 1 0 0 1 0 0 2
Validated: 9
EndChar

StartChar: idieresis
Encoding: 239 239 125
Width: 311
Flags: W
LayerCount: 2
Fore
SplineSet
262 0 m 25,0,-1
 49 0 l 1,1,-1
 49 50 l 17,2,-1
 124 50 l 1,3,-1
 124 460 l 1,4,-1
 38 460 l 1,5,-1
 38 511 l 17,6,-1
 187 511 l 1,7,-1
 187 50 l 1,8,-1
 262 50 l 1,9,-1
 262 0 l 25,0,-1
256 631 m 256,10,11
 256 613 256 613 243.5 600 c 128,-1,12
 231 587 231 587 213 587 c 256,13,14
 195 587 195 587 182 600 c 128,-1,15
 169 613 169 613 169 631 c 256,16,17
 169 649 169 649 182 662 c 128,-1,18
 195 675 195 675 213 675 c 256,19,20
 231 675 231 675 243.5 662 c 128,-1,21
 256 649 256 649 256 631 c 256,10,11
67 631 m 256,22,23
 67 613 67 613 54.5 600 c 128,-1,24
 42 587 42 587 24 587 c 0,25,26
 5 587 5 587 -7.5 600 c 128,-1,27
 -20 613 -20 613 -20 631 c 256,28,29
 -20 649 -20 649 -7.5 662 c 128,-1,30
 5 675 5 675 24 675 c 0,31,32
 42 675 42 675 54.5 662 c 128,-1,33
 67 649 67 649 67 631 c 256,22,23
EndSplineSet
Validated: 1
EndChar

StartChar: bracketright
Encoding: 93 93 126
Width: 339
Flags: W
LayerCount: 2
Fore
SplineSet
50 800 m 21,0,-1
 50 748 l 5,1,-1
 123 748 l 5,2,-1
 123 -80 l 5,3,-1
 49 -80 l 5,4,-1
 50 -132 l 5,5,-1
 189 -131 l 5,6,-1
 189 800 l 5,7,-1
 50 800 l 21,0,-1
EndSplineSet
Validated: 9
EndChar

StartChar: bracketleft
Encoding: 91 91 127
Width: 339
Flags: W
LayerCount: 2
Fore
SplineSet
289 800 m 17,0,-1
 289 748 l 1,1,-1
 216 748 l 1,2,-1
 216 -80 l 1,3,-1
 290 -80 l 1,4,-1
 289 -132 l 1,5,-1
 150 -131 l 1,6,-1
 150 800 l 1,7,-1
 289 800 l 17,0,-1
EndSplineSet
Validated: 1
EndChar

StartChar: numbersign
Encoding: 35 35 128
Width: 469
Flags: W
LayerCount: 2
Fore
SplineSet
185.807617188 519.78515625 m 5,0,1
 240.565429688 508.055664062 l 5,2,-1
 142.4921875 69.7451171875 l 5,3,4
 87.734375 81.4736328125 l 5,5,-1
 185.807617188 519.78515625 l 5,6,-1
 185.807617188 519.78515625 l 5,0,1
320.2421875 518.629882812 m 5,7,8
 375 506.900390625 l 5,9,-1
 276.926757812 68.5888671875 l 5,10,11
 222.168945312 80.318359375 l 5,12,-1
 320.2421875 518.629882812 l 5,13,-1
 320.2421875 518.629882812 l 5,7,8
419 402 m 5,14,-1
 419 346 l 5,15,-1
 50 346 l 5,16,-1
 50 402 l 5,17,-1
 419 402 l 5,18,-1
 419 402 l 5,14,-1
419 241 m 5,19,-1
 419 185 l 5,20,-1
 50 185 l 5,21,-1
 50 241 l 5,22,-1
 419 241 l 5,23,-1
 419 241 l 5,19,-1
EndSplineSet
Validated: 5
EndChar

StartChar: ydieresis
Encoding: 255 255 129
Width: 591
Flags: W
LayerCount: 2
Fore
SplineSet
439 631 m 260,0,1
 439 613 439 613 426.5 600 c 132,-1,2
 414 587 414 587 396 587 c 260,3,4
 378 587 378 587 365 600 c 132,-1,5
 352 613 352 613 352 631 c 260,6,7
 352 649 352 649 365 662 c 132,-1,8
 378 675 378 675 396 675 c 260,9,10
 414 675 414 675 426.5 662 c 132,-1,11
 439 649 439 649 439 631 c 260,0,1
250 631 m 260,12,13
 250 613 250 613 237.5 600 c 132,-1,14
 225 587 225 587 207 587 c 4,15,16
 188 587 188 587 175.5 600 c 132,-1,17
 163 613 163 613 163 631 c 260,18,19
 163 649 163 649 175.5 662 c 132,-1,20
 188 675 188 675 207 675 c 4,21,22
 225 675 225 675 237.5 662 c 132,-1,23
 250 649 250 649 250 631 c 260,12,13
38 -209 m 17,24,25
 85 -240 85 -240 146 -240 c 0,26,27
 197 -240 197 -240 234 -206 c 0,28,29
 268 -174 268 -174 283 -125 c 1,30,-1
 491 460 l 1,31,-1
 552 460 l 9,32,-1
 552 510 l 1,33,-1
 373 510 l 9,34,-1
 373 460 l 1,35,-1
 425 460 l 1,36,-1
 293 85 l 1,37,-1
 159 460 l 1,38,-1
 218 460 l 9,39,-1
 218 510 l 1,40,-1
 40 510 l 9,41,-1
 40 460 l 1,42,-1
 92 460 l 1,43,-1
 261 0 l 1,44,-1
 227 -111 l 2,45,46
 204.63963964 -184 204.63963964 -184 153 -184 c 0,47,48
 105 -184 105 -184 68 -162 c 1,49,-1
 38 -209 l 17,24,25
EndSplineSet
Validated: 9
EndChar

StartChar: ordmasculine
Encoding: 186 186 131
Width: 1200
VWidth: 2048
Flags: W
LayerCount: 2
Fore
SplineSet
483 1272.5 m 132,-1,1
 483 1221 483 1221 517 1184.5 c 132,-1,2
 551 1148 551 1148 601 1148 c 132,-1,3
 651 1148 651 1148 685 1184.5 c 132,-1,4
 719 1221 719 1221 719 1272.5 c 132,-1,5
 719 1324 719 1324 685 1360 c 132,-1,6
 651 1396 651 1396 601 1396 c 132,-1,7
 551 1396 551 1396 517 1360 c 132,-1,0
 483 1324 483 1324 483 1272.5 c 132,-1,1
350 1270 m 132,-1,9
 350 1374 350 1374 423 1447 c 132,-1,10
 496 1520 496 1520 600 1520 c 132,-1,11
 704 1520 704 1520 777 1447 c 132,-1,12
 850 1374 850 1374 850 1270 c 132,-1,13
 850 1166 850 1166 777 1093 c 132,-1,14
 704 1020 704 1020 600 1020 c 132,-1,15
 496 1020 496 1020 423 1093 c 132,-1,8
 350 1166 350 1166 350 1270 c 132,-1,9
517 1360 m 128,-1,0
423 1447 m 128,-1,8
777 1093 m 128,-1,12
423 1093 m 128,-1,8
EndSplineSet
Validated: 2049
EndChar

StartChar: degree
Encoding: 176 176 132
Width: 283
VWidth: 2048
Flags: W
LayerCount: 2
Fore
SplineSet
61.87890625 720.259765625 m 0,0,1
 85.361328125 741.278320312 85.361328125 741.278320312 122.337890625 741.278320312 c 0,2,3
 159.741210938 741.278320312 159.741210938 741.278320312 185.715820312 714.265625 c 128,-1,4
 211.690429688 687.252929688 211.690429688 687.252929688 211.690429688 649.850585938 c 256,5,6
 211.690429688 612.448242188 211.690429688 612.448242188 185.715820312 585.435546875 c 128,-1,7
 159.741210938 558.421875 159.741210938 558.421875 122.337890625 558.421875 c 0,8,9
 80.810546875 558.421875 80.810546875 558.421875 56.8837890625 585.435546875 c 0,10,11
 32.494140625 612.97265625 32.494140625 612.97265625 30.9208984375 647.124023438 c 0,12,13
 28.8486328125 690.290039062 28.8486328125 690.290039062 61.87890625 720.259765625 c 0,0,1
164.203125 651 m 256,14,15
 164.203125 669 164.203125 669 151.703125 682 c 128,-1,16
 139.203125 695 139.203125 695 121.203125 695 c 0,17,18
 102.203125 695 102.203125 695 89.703125 682 c 128,-1,19
 77.203125 669 77.203125 669 77.203125 651 c 256,20,21
 77.203125 633 77.203125 633 89.703125 620 c 128,-1,22
 102.203125 607 102.203125 607 121.203125 607 c 0,23,24
 139.203125 607 139.203125 607 151.703125 620 c 128,-1,25
 164.203125 633 164.203125 633 164.203125 651 c 256,14,15
EndSplineSet
Validated: 33
EndChar
